<svg width="389" height="389" viewBox="0 0 389 389" fill="none" xmlns="http://www.w3.org/2000/svg">
<path fill-rule="evenodd" clip-rule="evenodd" d="M136.009 323.324C167.424 312.557 198.129 342.657 252.118 351.396C306.106 360.134 344.908 290.134 323.438 253.94C301.968 217.746 306.106 170.527 320.275 125.647C334.443 80.7664 316.327 54.0508 297.075 43.1138C277.823 32.1768 258.931 28.749 228.799 30.8064C198.666 32.8638 167.269 41.8124 137.896 56.6376C108.524 71.4629 75.5028 104.316 72.1007 125.383C68.6986 146.45 82.2918 148.51 84.7239 181.831C87.1559 215.152 53.6629 259.705 67.282 289.926C80.9011 320.147 104.594 334.091 136.009 323.324Z" fill="#8EFF94"/>
<path fill-rule="evenodd" clip-rule="evenodd" d="M125.651 322.476L125.48 323.844C125.48 323.844 127.947 324.122 129.002 323.968C130.058 323.813 131.991 321.68 131.991 321.68C131.991 321.68 129.974 321.916 129.002 322.037" fill="#E7EAEE"/>
<path fill-rule="evenodd" clip-rule="evenodd" d="M133.501 367.205L137.385 370.909L200.304 140.897L196.462 135.907L133.501 367.205Z" fill="white"/>
<path fill-rule="evenodd" clip-rule="evenodd" d="M103.215 369.7C103.215 369.7 107.813 370.909 111.869 356.987C115.925 343.064 169.712 144.922 169.712 144.922L167.935 140.575L103.215 369.7Z" fill="white"/>
<path fill-rule="evenodd" clip-rule="evenodd" d="M209.935 23.7171C210.317 22.7267 212.366 23.9287 213.407 23.7171C213.368 25.2833 180.247 111.111 177.184 117.297C176.639 116.887 174.167 115.687 173.622 115.276C174.789 114.956 198.698 52.8156 209.935 23.7171Z" fill="white"/>
<path fill-rule="evenodd" clip-rule="evenodd" d="M242.416 21.7909C236.842 37.5134 211.359 104.58 208.632 110.089C208.339 109.869 206.706 111.445 205.533 111.553C204.524 111.646 203.957 110.279 203.705 110.089C204.853 109.774 228.013 49.6245 239.462 19.969C239.65 19.4809 243.101 19.8583 242.416 21.7909Z" fill="white"/>
<path fill-rule="evenodd" clip-rule="evenodd" d="M140.052 284.29L145.871 287.15C145.871 287.15 161.196 265.237 161.196 254.283C161.196 249.917 148.577 246.991 141.37 242.025C137.265 239.197 135.562 234.102 133.273 232.141C131.482 230.606 127.469 229.804 121.853 230.18C120.507 230.269 117.556 232.141 117.556 232.141C117.556 232.141 105.288 242.961 111.929 251.792C113.918 254.437 122.218 268.008 124.044 276.986C126.455 288.835 125.036 321.831 125.036 321.831C125.036 321.831 127.597 321.806 129.178 321.449C130.759 321.093 134.047 319.799 134.047 319.799C134.047 319.799 133.677 308.586 134.047 303.596C135.009 290.644 136.473 280.29 135.238 272.259C132.67 255.57 123.011 248.061 123.011 248.061L151.191 261.511L140.052 284.29Z" fill="white"/>
<path fill-rule="evenodd" clip-rule="evenodd" d="M145.354 290.056C145.399 290.957 145.102 291.871 144.537 292.575C144.313 291.793 144.252 290.965 144.359 290.159C142.305 289.891 140.301 289.247 138.475 288.269C137.789 289.984 137.243 291.757 136.845 293.561C136.666 294.374 136.555 295.336 137.131 295.936C137.633 296.458 138.447 296.481 139.17 296.468C141.436 296.429 143.733 296.385 145.907 295.745C148.08 295.105 150.151 293.784 151.191 291.771C150.155 290.731 148.623 290.209 147.167 290.398C147.546 291.085 147.451 292.004 146.939 292.599C146.466 291.91 146.309 291.011 146.522 290.203C146.163 290.029 145.746 289.977 145.354 290.056Z" fill="white"/>
<path fill-rule="evenodd" clip-rule="evenodd" d="M128.554 324.471C127.416 324.724 126.058 325.003 125.218 324.193C125.034 325.707 124.989 327.238 125.084 328.76C125.304 328.916 125.594 328.967 125.854 328.897C125.997 329.228 126.048 329.598 125.999 329.956C126.851 330.979 128.476 330.651 129.728 330.198C131.717 329.478 133.707 328.646 135.335 327.295C136.105 326.657 136.833 325.766 136.708 324.774C136.584 323.782 135.092 323.126 134.55 323.967C135.027 324.44 135.25 325.156 135.124 325.817C134.148 325.113 133.172 324.41 132.196 323.706C132.569 324.666 132.942 325.626 133.314 326.586C133.082 326.957 132.466 326.774 132.226 326.408C131.985 326.042 131.946 325.576 131.729 325.196C131.153 324.182 129.693 324.219 128.554 324.471Z" fill="white"/>
<path fill-rule="evenodd" clip-rule="evenodd" d="M138.866 193.627C141.217 192.159 144.077 194.421 145.911 196.499C148.164 199.049 150.416 201.6 152.668 204.151C153.756 197.276 157.969 191.364 162.06 185.734C163.235 184.117 164.445 182.466 166.104 181.351C167.762 180.236 170.955 181.04 171.78 180.632C171.667 179.425 170.629 178.371 169.425 178.238C169.584 176.836 170.248 175.498 171.268 174.523C171.275 173.685 169.955 173.817 169.245 174.261C162.029 178.78 155.571 184.506 150.222 191.129C148.918 192.743 146.917 194.602 145.088 193.624C143.196 192.612 143.745 189.826 144.282 187.749C145.018 184.902 145.204 181.915 144.828 178.998C144.427 175.892 143.397 172.749 144.094 169.696C144.791 166.642 148.282 163.938 150.994 165.504C153.08 166.71 155.977 165.585 157.184 163.501C158.392 161.416 158.146 158.729 157.108 156.555C156.069 154.381 154.338 152.624 152.58 150.977C151.379 149.851 150.076 148.715 148.472 148.345C146.116 147.801 143.468 149.279 142.695 151.571C141.922 153.862 143.134 156.642 145.338 157.636C143.956 158.053 142.4 157.855 141.165 157.107C143.03 157.959 143.83 160.33 143.415 162.337C142.999 164.344 141.632 166.022 140.136 167.423C138.543 168.914 136.753 170.195 134.826 171.22C124.906 176.498 120.108 188.044 117.802 199.042C115.496 210.04 114.838 221.607 109.864 231.684C110.835 232.662 112.448 231.857 113.683 231.246C119.512 228.36 126.467 231.117 132.957 230.687C134.597 230.578 136.377 230.169 137.37 228.86C137.957 228.087 138.182 227.107 138.393 226.16C138.897 223.892 139.402 221.624 139.906 219.356C140.028 218.808 140.15 218.243 140.046 217.692C139.916 217.009 139.456 216.442 139.013 215.905C136.533 212.906 134.053 209.849 132.378 206.335C130.703 202.822 129.885 198.759 130.891 194.999C131.963 200.759 134.323 206.276 137.748 211.03C139.752 213.812 142.308 216.454 145.629 217.308C149.41 218.28 153.354 216.753 156.859 215.034C165.281 210.905 173.07 205.488 179.872 199.029C179.242 199.229 178.613 199.429 177.983 199.629C178.489 198.642 179.177 197.75 180.003 197.011C179.12 197.457 178.236 197.904 177.353 198.35C178.068 197.319 178.783 196.287 179.498 195.256C178.02 195.81 176.682 196.735 175.641 197.921C175.933 196.79 175.868 195.569 175.459 194.475C174.817 197.742 171.433 199.593 168.416 200.999C165.323 202.44 162.231 203.881 159.138 205.322C156.78 206.42 153.531 207.33 151.953 205.262C148.39 200.593 143.92 196.619 138.866 193.627Z" fill="white"/>
<path fill-rule="evenodd" clip-rule="evenodd" d="M150.702 161.305C151.415 161.305 151.681 160.725 151.303 160.009C150.932 159.292 150.207 158.712 149.676 158.712C149.145 158.712 148.86 159.292 149.048 160.009C149.244 160.725 149.988 161.305 150.702 161.305Z" fill="#FFB61D"/>
<path fill-rule="evenodd" clip-rule="evenodd" d="M156.213 157.156C156.761 157.156 156.969 156.575 156.676 155.859C156.384 155.143 155.702 154.562 155.154 154.562C154.605 154.562 154.398 155.143 154.69 155.859C154.983 156.575 155.664 157.156 156.213 157.156Z" fill="#FFB61D"/>
<path fill-rule="evenodd" clip-rule="evenodd" d="M212.04 156.353L211.225 217.619L281.326 222.126L286.115 219.725L286.927 93.9821C286.951 90.1936 284.762 86.7393 281.326 85.144V85.144L229.882 89.5749L212.04 156.353Z" fill="white"/>
<path fill-rule="evenodd" clip-rule="evenodd" d="M138.84 294.477C138.51 294.34 138.153 294.271 137.795 294.275C137.373 294.13 137.621 293.442 138.034 293.271C138.446 293.1 138.963 293.12 139.265 292.79C139.518 292.514 139.518 292.098 139.645 291.745C139.771 291.392 140.179 291.298 140.465 291.54C140.523 292.521 141.746 291.832 142.634 292.369C143.13 292.669 142.304 293.07 142.363 293.554C142.437 294.167 143.839 295.55 143.176 295.308C142.452 295.044 141.438 294.637 140.678 294.76C139.997 294.871 139.563 295.477 139.002 295.878C138.822 295.438 138.765 294.947 138.84 294.477Z" fill="#FFB61D"/>
<path fill-rule="evenodd" clip-rule="evenodd" d="M129.031 328.76C129.346 328.95 129.58 329.268 129.668 329.626C129.314 329.719 128.675 328.972 128.185 329.113C127.688 329.255 127.341 330.285 126.97 330.27C126.582 330.253 127.322 329.417 127.136 328.919C126.968 328.471 125.855 328.369 125.856 328.13C125.858 327.948 126.655 327.969 126.97 327.68C127.171 327.496 126.927 326.975 126.97 326.884C127.136 326.534 127.762 326.884 128.185 327.371C128.639 327.251 129.094 327.132 129.548 327.012C129.744 327.626 128.625 327.927 128.832 328.506L129.031 328.76Z" fill="#FFB61D"/>
<path d="M197.212 135.908C199.161 135.942 200.69 137.792 201.045 139.708C201.4 141.625 200.868 144.102 200.342 145.979C186.128 196.638 156.392 304.999 142.178 355.504C135.69 378.558 137.382 369.701 138.234 366.814L198.808 143.585C199.464 141.171 199.486 137.653 197.027 137.194C192.521 156.124 187.176 174.854 181.014 193.312C181.257 188.118 182.325 182.963 184.165 178.099C180.518 179.629 176.245 179.598 172.621 178.015C176.354 176.74 180.345 176.225 184.28 176.509C184.738 174.973 185.195 173.435 185.652 171.899C185.658 171.86 186.173 168.762 187.916 165.351C189.67 161.918 189.923 157.941 190.143 154.092C183.155 155.694 175.955 156.367 168.791 156.088C173.488 154.068 178.604 153.027 183.717 153.051C187.209 153.068 192.112 152.356 192.039 148.864C184.228 149.921 176.418 150.979 168.607 152.037C166.966 161.079 164.119 169.903 160.167 178.2C163.213 166.739 166.26 155.277 169.306 143.816C170.47 145.465 170.569 147.8 169.547 149.541C177.126 148.843 184.706 148.146 192.286 147.449C193.148 143.328 194.833 139.381 197.212 135.908ZM143.688 133.947C146.818 133.95 149.867 135.886 151.2 138.718C152.533 141.551 152.083 145.134 150.091 147.548C154.003 150.441 158.202 153.768 159.162 158.539C160.121 163.309 155.347 169.061 150.94 166.998C149.209 166.187 147.078 167.429 146.234 169.144C145.391 170.86 145.487 172.868 145.602 174.776C145.934 180.27 145.902 186.995 146.234 192.489C146.264 192.986 159.225 178.61 166.646 174.516C174.743 170.05 171.641 175.293 170.363 177.629C170.035 178.231 173.364 180.269 172.36 181.824C168.988 179.786 165.086 183.39 162.8 186.598C158.826 192.174 154.709 198.136 154.239 204.966C162.415 203.76 170.139 199.687 175.754 193.623C176.513 193.737 176.944 194.779 176.486 195.396C177.744 194.908 179.002 194.419 180.26 193.931C182.341 197.581 179.085 201.931 175.864 204.629C168.357 210.918 159.665 215.789 150.382 218.908C150.045 220.278 149.708 221.649 149.371 223.019C155.652 221.629 162.077 220.892 168.51 220.822C172.05 220.783 174.072 216.759 174.743 213.282C175.413 209.805 175.823 205.777 178.729 203.753C175.457 215.771 172.184 227.788 168.912 239.805C168.537 241.18 168.052 242.7 166.801 243.381C155.151 249.72 138.676 244.309 133.053 232.297C130.68 232.933 128.096 232.749 125.837 231.784C120.894 229.672 114.858 233.04 112.653 237.942C110.448 242.844 111.32 248.629 113.33 253.614C115.34 258.599 118.401 263.088 120.707 267.944C128.495 284.347 127.115 303.433 125.567 321.526C128.238 320.914 130.908 320.302 133.579 319.69C132.77 309.302 133.024 298.831 134.336 288.494C135.164 281.966 136.384 275.146 134.147 268.958C132.753 265.103 130.077 261.73 129.234 257.718C128.309 253.317 125.445 249.359 121.553 247.104C130.631 251.236 139.708 255.368 148.786 259.5C149.6 259.871 150.46 260.28 150.944 261.032C151.849 262.437 151.058 264.279 150.262 265.75C146.965 271.845 143.668 277.942 140.371 284.038C142.094 284.975 143.817 285.913 145.541 286.851C150.001 278.456 154.462 270.061 158.923 261.666C159.948 259.735 161.006 257.646 160.743 255.476C160.236 251.296 155.434 249.315 151.384 248.165C156.283 246.588 161.526 246.089 166.635 246.713C155.956 286.976 144.911 327.143 133.502 367.205C132.831 362.396 134.472 357.598 136.088 353.02C128.751 353.848 121.414 354.676 114.077 355.504C113.01 355.157 114.314 353.668 115.424 353.496C122.157 352.448 129.612 352.414 136.345 351.367C137.06 351.255 136.845 350.722 137.132 349.445C129.457 349.679 122.42 350.489 114.746 350.723C114.454 350.438 114.937 349.588 115.85 349.445C120.151 348.773 124.239 349.462 129.727 348.462C130.672 348.29 136.644 347.76 137.383 347.146C138.28 346.4 138.62 345.194 138.914 344.065C139.533 341.682 140.552 336.429 141.971 330.384C142.018 330.16 135.916 329.738 135.969 329.509C136.015 329.331 142.216 329.345 142.259 329.164C142.4 328.558 142.695 327.295 142.695 327.295L136.952 327.125C137.059 326.939 137.152 326.748 137.229 326.549C137.379 326.498 137.552 326.45 137.752 326.409C138.88 326.178 143.641 325.82 143.688 325.817C143.688 325.817 145.324 320.171 145.718 318.738C147.492 312.272 149.266 305.807 151.041 299.341C145.979 300.041 140.917 300.741 135.855 301.441C135.192 300.046 137.256 299.001 138.79 298.82C143.057 298.315 147.324 297.81 151.591 297.305C153.171 290.401 155.041 283.562 157.195 276.815C154.408 275.048 151.101 278.338 149.897 281.411C148.694 284.483 147.445 288.351 144.192 288.906C146.057 288.671 148.049 288.456 149.729 289.296C151.41 290.137 152.464 292.48 151.31 293.963C150.901 294.49 150.295 294.819 149.707 295.133C146.847 296.663 143.744 298.241 140.528 297.824C138.081 297.506 135.774 295.444 135.388 293.171C135.464 292.468 135.545 291.766 135.629 291.064C135.636 291.047 135.642 291.029 135.65 291.011C137.497 286.862 139.343 282.714 141.189 278.565C139.971 278.612 138.752 278.659 137.534 278.707C136.759 282.802 136.124 286.925 135.629 291.064C135.332 291.757 135.27 292.474 135.388 293.171C134.414 302.186 134.102 311.273 134.462 320.333C132.896 319.944 131.591 322.368 132.778 323.46C133.7 321.229 137.623 322.963 137.488 325.373C137.465 325.788 137.373 326.18 137.229 326.549C136.53 326.79 136.345 327.107 136.345 327.107L136.952 327.125C136.105 328.595 134.392 329.652 132.746 330.313C130.746 331.116 128.64 331.651 126.5 331.902C125.783 331.986 124.964 332.004 124.452 331.496C123.954 331.001 123.95 330.21 123.98 329.509L124.753 311.407C123.642 315.112 120.506 326.508 120.484 326.586C120.516 326.591 123.393 327.031 123.784 327.313C123.981 328.159 120.128 327.502 120.128 327.502L119.813 329.102C119.813 329.102 122.695 329.714 123.46 330.634C122.173 330.639 120.368 330.643 119.082 330.647C116.088 343.88 113.058 357.224 107.404 369.557C112.83 350.716 115.896 339.269 119.813 325.196C121.196 320.228 123.223 314.16 124.753 308.394C124.462 309.28 125.043 300.556 124.753 301.441C117.785 322.698 110.182 348.442 103.215 369.7C108.971 350.035 114.728 330.37 120.484 310.705C122.069 305.289 123.663 299.83 124.148 294.208C125.032 283.966 122.156 273.659 117.456 264.516C114.947 259.636 111.897 254.97 110.326 249.713C108.755 244.456 108.914 238.283 112.396 234.043C111.17 234.049 109.943 234.054 108.717 234.06C111.364 220.632 114.485 207.297 118.072 194.089C120.366 185.644 123.36 176.537 130.7 171.771C133.366 170.04 136.486 168.986 138.852 166.863C141.219 164.74 142.581 160.908 140.647 158.385C138.677 155.816 134.318 155.833 132.755 152.999C131.32 150.398 133.255 147.156 135.618 145.356C137.981 143.556 140.908 142.342 142.585 139.89C143.756 138.178 144.167 135.965 143.688 133.947ZM136.708 324.774C136.583 323.782 135.091 323.127 134.55 323.967C135.027 324.44 135.25 325.157 135.125 325.817C134.149 325.113 133.172 324.41 132.196 323.707C132.569 324.666 132.941 325.626 133.314 326.586C133.081 326.957 132.466 326.774 132.225 326.409C131.985 326.043 131.946 325.576 131.729 325.196C131.153 324.182 129.693 324.22 128.554 324.472C127.416 324.725 126.058 325.003 125.219 324.193C125.034 325.707 124.989 327.238 125.085 328.76C125.305 328.915 125.594 328.968 125.854 328.898C125.997 329.229 126.048 329.599 125.999 329.956C126.851 330.979 128.475 330.651 129.727 330.198C131.716 329.477 133.707 328.646 135.335 327.295C136.104 326.657 136.832 325.766 136.708 324.774ZM130.971 321.832C129.289 322.295 127.542 322.525 125.798 322.512C125.754 322.848 125.71 323.184 125.666 323.52C126.684 323.742 127.736 323.964 128.76 323.77C129.785 323.576 130.784 322.857 130.971 321.832ZM138.475 288.269C137.789 289.985 137.243 291.757 136.844 293.561C136.665 294.374 136.555 295.336 137.132 295.936C137.633 296.458 138.447 296.481 139.171 296.468C141.436 296.429 143.734 296.386 145.907 295.746C148.08 295.105 150.151 293.784 151.191 291.771C150.155 290.731 148.623 290.209 147.167 290.399C147.545 291.086 147.45 292.003 146.939 292.598C146.466 291.909 146.309 291.011 146.522 290.203C146.163 290.029 145.746 289.977 145.354 290.056C145.398 290.957 145.102 291.871 144.537 292.575C144.313 291.793 144.252 290.966 144.359 290.16C142.305 289.892 140.301 289.248 138.475 288.269ZM139.873 285.566C139.031 286.027 139.182 287.396 139.921 288.009C140.659 288.623 141.694 288.692 142.653 288.734C142.915 288.298 143.176 287.861 143.438 287.425C142.25 286.806 141.061 286.185 139.873 285.566ZM137.319 264.973C136.896 266.295 136.469 267.633 136.374 269.017C136.258 270.699 136.634 272.371 137.008 274.015C137.235 275.017 137.463 276.019 137.691 277.021C138.839 276.966 139.987 276.912 141.135 276.858C141.238 277.277 141.341 277.695 141.443 278.114C142.116 276.598 142.995 275.174 144.046 273.891C142.124 273.778 140.187 273.94 138.311 274.373C137.843 273.726 137.589 272.927 137.597 272.129C139.877 271.704 142.188 271.443 144.506 271.35C144.284 271.848 144.29 272.443 144.522 272.936C146.014 269.599 147.861 266.42 150.021 263.47C150.444 262.892 150.246 262.033 149.766 261.5C149.287 260.968 148.598 260.684 147.933 260.416C145.23 259.326 142.527 258.235 139.824 257.145C138.989 259.754 138.154 262.364 137.319 264.973ZM161.833 259.791C160.361 262.189 159.033 264.676 157.856 267.232C156.732 269.674 155.729 272.21 154.096 274.347C155.878 275.227 158.34 273.909 158.595 271.939C158.932 269.339 159.674 266.792 160.786 264.418C161.474 262.949 162.327 261.337 161.833 259.791ZM138.075 256.812C137.922 256.286 137.312 255.942 136.783 256.083C136.177 258.276 135.624 260.483 135.124 262.702C134.801 264.134 134.533 265.761 135.367 266.97C136.233 263.976 137.099 260.98 137.965 257.986C138.075 257.603 138.186 257.195 138.075 256.812ZM132.846 263.06C133.947 260.952 134.702 258.663 135.073 256.314C135.128 255.968 135.167 255.588 134.981 255.292C134.818 255.031 134.517 254.896 134.231 254.782C132.667 254.155 131.032 253.706 129.367 253.445C130.527 256.65 131.687 259.855 132.846 263.06ZM165.094 248.404C162.509 247.752 159.698 248.038 157.298 249.198C159.732 249.79 161.748 251.849 162.288 254.295C162.419 254.891 162.782 255.707 163.35 255.486C163.612 253.062 164.2 250.672 165.094 248.404ZM157.525 224.083C154.599 224.473 151.629 224.862 148.705 224.454C147.155 229.931 145.605 235.408 144.055 240.885C143.976 241.166 143.896 241.46 143.952 241.746C144.013 242.057 144.227 242.314 144.454 242.537C146.751 244.791 150.44 244.515 153.63 244.085C157.441 243.572 161.252 243.058 165.063 242.544C165.467 242.49 165.887 242.429 166.227 242.205C166.763 241.851 166.977 241.182 167.153 240.565C168.893 234.457 170.525 228.318 172.048 222.152C167.207 222.796 162.366 223.44 157.525 224.083ZM148.637 219.184C148.076 219.027 147.484 218.978 146.904 219.041C144.984 225.649 143.064 232.258 141.144 238.867C140.851 239.878 141.513 241.065 142.528 241.345C144.565 233.958 146.601 226.571 148.637 219.184ZM142.488 218.274C141.973 218.172 141.342 218.458 141.272 218.979C141.002 220.994 140.732 223.01 140.463 225.025C140.248 226.628 140.017 228.279 139.204 229.678C138.391 231.077 136.841 232.176 135.238 231.958C136.615 234.192 137.991 236.427 139.368 238.662C141.417 232.331 143.235 225.927 144.819 219.464C144.914 219.076 144.894 218.509 144.498 218.461C144.267 218.674 144.037 218.887 143.806 219.1C143.419 218.746 143.003 218.376 142.488 218.274ZM148.471 148.345C146.115 147.801 143.468 149.28 142.695 151.571C141.922 153.862 143.134 156.642 145.338 157.636C144.099 158.009 142.722 157.888 141.56 157.321C141.434 157.242 141.303 157.171 141.166 157.108C141.294 157.185 141.426 157.255 141.56 157.321C143.141 158.307 143.8 160.478 143.415 162.337C142.999 164.344 141.632 166.021 140.135 167.422C138.543 168.914 136.752 170.195 134.826 171.22C124.906 176.499 120.108 188.045 117.802 199.042C115.497 210.04 114.837 221.607 109.864 231.684C110.835 232.662 112.447 231.857 113.682 231.246C119.511 228.36 126.467 231.117 132.957 230.687C134.597 230.578 136.377 230.169 137.37 228.86C137.956 228.087 138.182 227.107 138.392 226.16C138.897 223.892 139.402 221.624 139.906 219.356C140.028 218.809 140.15 218.243 140.046 217.693C139.916 217.009 139.457 216.442 139.013 215.906C136.534 212.906 134.053 209.849 132.378 206.335C130.703 202.822 129.885 198.759 130.89 195C131.963 200.76 134.323 206.277 137.748 211.031C139.752 213.813 142.308 216.454 145.629 217.308C149.409 218.28 153.354 216.753 156.859 215.035C165.281 210.906 173.07 205.488 179.872 199.03C179.242 199.229 178.613 199.429 177.983 199.628C178.489 198.642 179.177 197.75 180.003 197.011C179.119 197.458 178.236 197.904 177.352 198.35C178.067 197.319 178.783 196.288 179.498 195.256C178.02 195.81 176.682 196.735 175.641 197.921C175.933 196.79 175.868 195.569 175.459 194.475C174.817 197.742 171.434 199.594 168.416 201C165.323 202.44 162.231 203.881 159.138 205.322C156.781 206.42 153.531 207.33 151.953 205.262C148.39 200.593 143.92 196.619 138.866 193.626C141.217 192.159 144.076 194.421 145.911 196.499C148.163 199.049 150.416 201.6 152.669 204.151C153.756 197.277 157.969 191.364 162.06 185.734C163.235 184.117 164.446 182.466 166.104 181.351C167.763 180.236 170.955 181.04 171.78 180.631C171.667 179.425 170.629 178.371 169.425 178.239C169.584 176.837 170.248 175.498 171.268 174.523C171.276 173.685 169.955 173.817 169.245 174.261C162.029 178.779 155.571 184.506 150.221 191.129C148.918 192.743 146.917 194.602 145.088 193.624C143.196 192.611 143.745 189.827 144.282 187.75C145.018 184.903 145.204 181.915 144.828 178.999C144.427 175.893 143.397 172.749 144.094 169.696C144.79 166.643 148.282 163.938 150.994 165.504C153.08 166.709 155.977 165.585 157.184 163.5C158.392 161.416 158.146 158.729 157.107 156.555C156.068 154.381 154.338 152.625 152.58 150.977C151.379 149.851 150.076 148.716 148.471 148.345ZM171.439 216.613C171.807 216.612 172.242 216.652 172.427 216.97C172.775 217.567 171.869 218.09 171.186 218.194C164.917 219.152 158.627 219.973 152.322 220.658C152.148 219.896 152.653 219.11 153.322 218.707C153.992 218.303 154.794 218.199 155.569 218.102C156.88 217.939 158.191 217.776 159.502 217.613C163.467 217.119 167.444 216.624 171.439 216.613ZM267.461 96.5317C268.289 96.4815 269.222 96.467 269.822 97.0405C270.403 97.5959 270.45 98.4927 270.458 99.2964C270.815 135.213 270.305 171.139 268.927 207.031C267.214 201.876 266.769 196.305 267.642 190.944C266.051 192.68 262.385 190.134 261.039 192.066C260.69 192.566 260.66 193.215 260.642 193.825C260.529 197.739 260.415 201.655 260.302 205.57C262.833 206.044 265.365 206.518 267.897 206.992C268.26 207.06 268.664 207.154 268.865 207.463C269.066 207.773 268.819 208.321 268.465 208.218C249.489 206.395 230.102 210.056 211.401 206.358C216.906 205.624 231.514 206.472 232.958 205.666C233.081 200.815 233.369 195.968 233.821 191.137C225.851 189.989 217.741 189.816 209.73 190.625C209.603 198.648 209.476 206.672 209.349 214.696L276.74 218.535C278.148 218.615 279.602 218.688 280.926 218.203C282.249 217.717 283.419 216.519 283.411 215.109C283.373 208.422 283.637 195.123 283.599 188.435C283.595 187.741 283.61 187.005 283.723 186.308C283.395 158.894 283.466 131.475 283.934 104.063C285.176 105.543 285.231 107.652 285.225 109.583C285.15 133.675 285.075 157.767 285 181.858C284.997 182.699 284.992 183.548 284.96 184.395C285.124 192.861 285.01 207.403 285.186 215.605C285.225 217.44 283.713 219.019 281.993 219.659C280.272 220.298 278.378 220.203 276.546 220.1C255.229 218.901 233.911 217.702 212.594 216.503C210.6 216.391 207.999 215.697 207.953 213.7C207.492 193.772 207.776 173.826 208.804 153.919C208.828 153.455 208.881 152.933 209.243 152.641C209.604 152.349 210.326 152.624 210.204 153.072C210.157 156.417 210.445 159.767 211.061 163.056C217.879 162.731 224.697 162.405 231.515 162.08C232.548 162.03 233.709 162.027 234.45 162.747C235.173 163.448 235.222 164.573 235.224 165.581C235.236 171.039 235.248 176.498 235.26 181.957C235.262 182.607 235.22 183.351 234.711 183.755C234.341 184.049 233.83 184.069 233.358 184.077L215.474 184.348C213.421 184.379 211.284 184.393 209.428 183.512C209.012 185.338 209.386 187.331 210.434 188.882C218.194 187.816 226.122 187.974 233.833 189.35C234.216 189.418 234.626 189.505 234.891 189.79C235.2 190.122 235.221 190.622 235.223 191.076C235.251 196.163 235.279 201.25 235.306 206.337C237.383 206.436 238.115 203.643 238.144 201.564C238.193 198.122 238.242 194.68 238.291 191.238C238.3 190.577 238.37 189.802 238.93 189.452C239.262 189.244 239.68 189.25 240.071 189.262C244.979 189.416 249.887 189.57 254.795 189.724C255.511 189.747 256.462 189.999 256.445 190.715C256.339 195.138 256.233 199.56 256.127 203.983C256.104 204.935 256.313 206.183 257.254 206.327C258.372 206.498 258.833 204.948 258.843 203.817C258.879 199.226 258.915 194.634 258.951 190.043C258.956 189.458 259.763 189.312 260.347 189.355C262.802 189.537 265.257 189.719 267.712 189.901C268.045 188.235 267.991 186.492 267.554 184.85C265.91 185.49 262.054 186.001 260.302 185.794C258.549 185.588 258.926 184.353 258.947 182.588C259.017 176.602 259.086 170.616 259.156 164.629C259.165 163.838 259.212 162.955 259.781 162.405C260.314 161.889 261.13 161.839 261.871 161.818C264.063 161.756 266.255 161.693 268.447 161.631C268.715 149.791 268.983 137.951 269.252 126.111C267.361 126.99 262.817 127.673 260.736 127.529C258.656 127.385 259.065 126.014 259.089 123.929C259.157 117.969 259.225 112.009 259.294 106.048C259.299 105.581 259.326 105.061 259.66 104.733C259.994 104.405 260.726 104.542 260.725 105.009C260.713 111.254 260.701 117.498 260.689 123.743C260.688 124.21 260.703 124.72 261.004 125.078C261.351 125.49 261.951 125.554 262.489 125.587C264.012 125.682 265.589 125.77 267.015 125.228C268.442 124.686 269.679 123.331 269.576 121.809C269.132 115.254 268.688 108.698 268.244 102.143C258.094 103.096 247.943 104.049 237.793 105.001C237.105 105.066 236.342 105.169 235.904 105.703C235.526 106.164 235.505 106.812 235.502 107.409C235.468 114.115 235.435 120.822 235.401 127.529C235.397 128.343 234.342 128.645 233.53 128.706C228.287 129.095 223.043 129.484 217.8 129.874C216.866 129.943 215.622 129.788 215.458 128.867C221.176 127.613 227.048 127.069 232.899 127.25C233.498 127.269 233.695 126.459 233.691 125.86C233.655 119.981 233.619 114.101 233.583 108.222C233.577 107.279 233.068 105.952 232.183 106.28C229.462 107.289 226.375 107.279 223.661 106.251C236.612 103.331 249.836 101.618 263.104 101.144C265.615 101.054 268.93 100.268 269.004 97.7563C254.514 98.9703 240.024 100.184 225.535 101.398C230.247 98.8294 235.802 98.4501 241.158 98.1255C249.925 97.5941 258.693 97.0631 267.461 96.5317ZM279.32 86.521C279.637 85.7997 280.575 85.576 281.354 85.6919C283.187 85.9644 284.598 87.5631 285.2 89.3149C285.802 91.0667 285.747 92.9665 285.686 94.8179L285.644 95.9946C285.533 98.7475 285.293 101.529 284.137 104.013C283.932 99.8429 283.726 95.6727 283.52 91.5024C283.427 89.6039 282.394 86.9953 280.588 87.5864C280.506 128.73 280.424 169.874 280.342 211.018C280.337 213.469 280.325 215.962 279.601 218.303C278.82 217.861 278.729 216.791 278.732 215.893C278.883 173.088 279.034 130.283 279.185 87.478C279.186 87.1536 279.19 86.8181 279.32 86.521ZM241.165 191.007C240.695 190.993 240.166 191 239.837 191.335C239.528 191.651 239.509 192.141 239.51 192.583C239.513 196.643 239.517 200.703 239.52 204.763C239.52 205.019 239.526 205.292 239.672 205.501C239.878 205.797 240.282 205.86 240.641 205.894C244.553 206.263 254.605 206.339 255.081 205.824C254.696 205.4 254.947 204.142 254.908 203.572C254.7 200.565 254.758 197.539 255.081 194.542C255.162 193.791 255.242 192.968 254.825 192.337C254.267 191.495 253.098 191.38 252.089 191.348C248.447 191.234 244.806 191.121 241.165 191.007ZM165.211 198.934C165.226 199.393 164.701 199.653 164.264 199.795L158.3 201.739C157.72 201.928 157.064 202.111 156.524 201.828C155.984 201.544 155.881 200.568 156.469 200.409C159.326 199.634 162.258 199.14 165.211 198.934ZM169.9 194.825C170.049 195.267 170.314 195.669 170.662 195.979C166.768 195.973 163.077 197.828 159.188 198.013C158.347 198.053 157.161 197.513 157.53 196.755C157.692 196.423 158.094 196.297 158.454 196.21C162.198 195.307 166.048 194.841 169.9 194.825ZM255.412 162.023C255.657 162.025 255.925 162.035 256.11 162.196C256.336 162.391 256.353 162.729 256.353 163.027C256.358 170.091 256.362 177.156 256.366 184.22C256.367 185.465 254.678 185.828 253.433 185.792C248.71 185.653 243.986 185.514 239.262 185.375C239.04 185.369 238.803 185.358 238.622 185.229C238.327 185.02 238.299 184.601 238.299 184.24C238.295 177.379 238.291 170.518 238.288 163.657C238.288 163.135 238.315 162.546 238.703 162.198C239.045 161.89 239.553 161.878 240.013 161.882C245.146 161.929 250.279 161.976 255.412 162.023ZM240.804 163.537C240.567 163.534 240.32 163.534 240.106 163.636C239.581 163.888 239.509 164.594 239.51 165.176C239.514 171.178 239.519 177.179 239.523 183.18C239.523 183.397 239.538 183.645 239.708 183.78C239.817 183.867 239.964 183.883 240.103 183.896C244.19 184.268 248.304 184.339 252.401 184.107C253.658 184.036 255.313 183.5 255.204 182.247C254.712 176.641 254.667 170.995 255.068 165.382C255.158 164.123 253.451 163.666 252.188 163.653C248.394 163.614 244.599 163.575 240.804 163.537ZM261.233 164.015C260.932 164.046 260.546 164.165 260.546 164.467C260.543 170.539 260.541 176.611 260.539 182.682C260.539 182.983 260.547 183.311 260.736 183.545C260.993 183.862 261.463 183.876 261.871 183.863C263.633 183.807 265.396 183.752 267.158 183.697C267.361 183.69 267.573 183.681 267.75 183.582C268.131 183.367 268.185 182.85 268.194 182.413L268.58 163.273C266.131 163.52 263.682 163.768 261.233 164.015ZM232.317 164.234C225.421 164.008 218.509 164.289 211.654 165.075C211.474 165.095 211.289 165.118 211.131 165.205C210.678 165.451 210.63 166.071 210.636 166.586C210.691 170.882 210.564 175.18 210.255 179.464C210.208 180.11 210.16 180.779 210.378 181.389C210.595 181.999 211.156 182.538 211.803 182.512C218.748 182.233 225.707 182.336 232.64 182.82C233.278 182.656 233.406 181.82 233.406 181.162C233.404 175.925 233.403 170.687 233.401 165.45C233.401 165.085 233.379 164.67 233.098 164.436C232.888 164.261 232.591 164.243 232.317 164.234ZM168.171 140.897C168.403 142.185 168.045 143.498 167.689 144.757C164.566 155.817 161.442 166.878 158.319 177.938C157.94 179.282 157.236 180.897 155.842 180.954C159.096 169.227 162.386 157.509 165.712 145.802C166.219 144.018 166.787 142.133 168.171 140.897ZM138.922 170.411C139.028 172.307 139.868 174.154 141.228 175.48C142.233 176.46 143.642 177.496 143.374 178.874C141.015 177.391 139.202 175.06 138.344 172.41C138.117 171.709 138.356 170.882 138.922 170.411ZM156.173 158.738C156.345 158.665 156.542 158.75 156.612 158.928C156.682 159.106 156.6 159.309 156.428 159.382C155.586 159.739 155.067 160.211 154.631 160.865C154.183 161.536 153.325 163.964 153.065 163.898C152.806 163.83 153.458 161.255 153.96 160.502C154.473 159.733 155.213 159.144 156.173 158.738ZM234.661 132.336C234.878 132.317 235.119 132.305 235.288 132.443C235.483 132.602 235.498 132.89 235.497 133.142C235.458 140.407 235.419 147.672 235.38 154.937C235.374 155.945 234.979 157.323 233.979 157.195C227.119 156.314 220.196 157.641 213.307 158.269C212.656 158.328 211.926 158.358 211.429 157.933C210.933 157.508 211.04 156.47 211.692 156.419C218.668 155.886 225.645 155.352 232.621 154.819C232.85 154.801 233.096 154.777 233.273 154.631C233.529 154.42 233.549 154.041 233.548 153.708L233.473 135.833C233.472 135.605 233.469 135.367 233.367 135.163C233.108 134.645 232.398 134.603 231.82 134.634C226.28 134.931 220.74 135.228 215.2 135.525C214.889 135.173 215.072 134.578 215.448 134.297C215.824 134.017 216.319 133.966 216.787 133.924C222.745 133.395 228.703 132.866 234.661 132.336ZM152.8 154.958C153.707 155.437 155.044 155.894 154.952 156.916C154.86 157.937 153.646 158.673 153.244 157.73C153.44 157.308 154.19 157.573 154.19 156.763C154.19 156.07 152.84 155.771 152.8 154.958ZM254.408 131.879C255.069 131.753 255.925 131.696 256.238 132.292C256.355 132.513 256.357 132.775 256.357 133.026C256.355 140.475 256.354 147.924 256.352 155.374C256.352 155.6 256.344 155.849 256.193 156.018C256.023 156.209 255.737 156.229 255.482 156.236C251.033 156.348 246.583 156.46 242.134 156.572C241.614 156.585 241.035 156.577 240.657 156.22C240.279 155.863 240.398 155.043 240.918 155.023C245.433 154.845 249.948 154.667 254.464 154.489C254.819 154.475 255.305 154.3 255.218 153.956C255.013 147.64 255.026 141.316 255.257 135.001C255.281 134.334 255.023 133.396 254.365 133.513C249.721 134.339 244.961 134.513 240.269 134.03C239.863 140.781 239.456 147.545 239.669 154.305C239.706 155.492 239.56 156.995 238.436 157.378C238.177 149.373 238.198 141.357 238.499 133.353C238.509 133.092 238.522 132.819 238.655 132.594C238.979 132.046 239.77 132.083 240.4 132.176C245.042 132.864 249.8 132.763 254.408 131.879ZM145.976 154.958C147.052 154.958 148.855 156.389 147.977 157.073C147.1 157.757 145.077 154.959 145.976 154.958ZM266.373 130.043C266.934 129.893 267.567 129.751 268.069 130.043C268.572 130.336 268.642 131.263 268.079 131.407C266.078 131.918 264.078 132.429 262.077 132.941C261.665 133.046 261.221 133.172 260.961 133.508C260.704 133.84 260.691 134.293 260.688 134.712C260.653 140.993 260.619 147.274 260.584 153.555C260.581 154.044 260.792 154.723 261.27 154.624C263.617 154.134 266.084 154.231 268.385 154.902C268.202 155.886 266.904 156.099 265.903 156.084C264.036 156.058 262.168 156.03 260.302 156.003C259.38 155.99 259.101 154.756 259.105 153.834L259.207 133.032C259.208 132.703 259.22 132.347 259.427 132.092C259.619 131.858 259.93 131.767 260.222 131.689C262.273 131.14 264.323 130.592 266.373 130.043ZM146.836 151.896C147.126 152.194 145.74 153.113 145.227 153.699C144.921 154.049 144.871 154.493 144.519 154.798C144.368 155.025 143.636 154.958 144.107 154.048C144.668 152.997 145.682 152.196 146.836 151.896ZM149.809 152.046C150.274 151.594 152.877 153.268 151.97 154.236C151.505 154.732 149.297 152.546 149.809 152.046ZM150.867 150.242C151.162 150.47 149.689 150.892 149.181 151.308C148.708 151.696 148.211 152.876 147.939 152.662C147.833 151.561 148.762 150.463 149.862 150.35C150.207 150.315 150.522 150.277 150.867 150.242ZM256.503 104.546C256.445 111.651 256.386 118.755 256.328 125.86C256.324 126.326 256.301 126.842 255.975 127.175C255.666 127.492 255.182 127.542 254.741 127.573C252.234 127.748 249.727 127.916 247.219 128.084L239.603 128.596C239.319 128.615 239.008 128.628 238.778 128.46C238.466 128.233 238.438 127.786 238.438 127.4C238.448 121.113 238.457 114.826 238.467 108.54C238.468 107.852 238.522 107.056 239.081 106.656C239.921 107.663 239.92 109.105 239.885 110.417C239.752 115.516 239.776 120.619 239.956 125.716C239.966 126.018 239.987 126.345 240.183 126.575C240.453 126.89 240.93 126.892 241.344 126.869C245.151 126.652 248.958 126.435 252.764 126.218C253.174 126.195 253.595 126.168 253.969 126C255.221 125.441 255.325 123.738 255.259 122.369C254.994 116.955 255.035 111.525 255.381 106.116C255.428 105.383 255.784 104.401 256.503 104.546ZM239.666 19.7095C228.059 50.2257 216.305 80.6862 204.405 111.089C203.647 111.378 203.416 110.076 203.679 109.309C204.981 105.522 206.283 101.735 207.585 97.9478C200.109 98.3742 192.614 98.4548 185.131 98.189C182.903 104.723 180.247 111.111 177.184 117.297C176.639 116.887 176.093 116.476 175.548 116.065C176.715 115.744 177.302 114.473 177.738 113.343C188.974 84.2447 200.21 55.1459 211.446 26.0474C211.828 25.0569 212.367 23.9289 213.407 23.7173C213.368 25.2834 213.017 26.8414 212.381 28.2729C219.138 28.283 225.896 28.2931 232.653 28.3032C236.636 28.3088 235.687 19.8926 239.666 19.7095ZM209.427 23.1431C209.835 22.1047 210.957 20.856 211.798 21.5894C199.748 52.393 187.681 83.1899 175.597 113.98C175.284 114.778 174.326 115.713 173.779 115.053C173.498 114.714 173.646 114.208 173.807 113.798L209.427 23.1431ZM242.492 21.6499C243.539 21.9376 243.383 23.4646 242.992 24.478C232.383 51.9979 221.773 79.5177 211.164 107.038C210.606 108.484 209.791 110.148 208.258 110.375C219.669 80.8003 231.08 51.2251 242.492 21.6499ZM233.879 30.0747C226.54 29.9631 219.195 30.2477 211.887 30.9263C211.341 30.977 211.041 31.5693 210.843 32.0806L187.069 93.3452C194.24 91.688 201.79 91.6939 208.959 93.3628C201.732 94.5946 194.359 94.9666 187.046 94.4683C186.481 94.9742 186.101 95.6815 185.99 96.4312C192.806 96.2557 199.622 96.0802 206.437 95.9048C207.099 95.8877 207.811 95.8534 208.334 95.4478C208.771 95.1088 208.995 94.5704 209.201 94.0571C211.191 89.0955 213.181 84.134 215.171 79.1724C215.461 78.4487 215.702 77.4973 215.108 76.9917C214.756 76.6923 214.248 76.6921 213.786 76.7075C208.335 76.8895 202.885 77.0715 197.434 77.2534C196.149 77.2963 194.462 77.0326 194.251 75.7642C200.459 75.0591 206.718 74.7926 212.964 74.9683C214.229 75.0038 215.625 75.0141 216.587 74.1909C217.227 73.6423 217.551 72.8189 217.848 72.0298C219.717 67.076 221.537 62.1033 223.308 57.1138C216.417 57.443 209.515 57.5564 202.617 57.4526C202.213 55.8908 204.489 55.1692 206.101 55.2095C210.01 55.307 213.918 55.4049 217.827 55.5024C219.558 55.5456 221.354 55.577 222.941 54.8862C224.529 54.1954 225.847 52.5641 225.596 50.8511C219.233 51.1682 212.871 51.4852 206.508 51.8022C206.124 51.8214 205.705 51.8313 205.396 51.6021C204.84 51.1883 205.037 50.2349 205.594 49.8218C206.152 49.409 206.895 49.3811 207.589 49.3696C212.841 49.2826 218.094 49.1959 223.346 49.1089C224.358 49.0921 225.462 49.0412 226.223 48.3755C226.663 47.9915 226.927 47.45 227.174 46.9214C228.983 43.0455 230.491 39.0281 231.677 34.9185C225.576 35.0745 219.474 35.2311 213.373 35.3872C212.582 35.4074 211.556 35.2537 211.396 34.479C211.192 33.4897 212.595 33.054 213.605 33.0581C218.327 33.0775 223.049 33.0973 227.771 33.1167C230.263 33.1269 233.505 32.5383 233.879 30.0747ZM276.814 85.4849C277.048 86.4293 275.756 86.9448 274.787 87.0396L233.64 91.0591C233.308 91.0915 232.933 91.1118 232.682 90.8911C231.974 90.267 233.23 89.3478 234.17 89.2524C248.368 87.8138 262.584 86.5579 276.814 85.4849ZM198.323 71.5757C204.207 71.2703 210.103 71.1931 215.993 71.3442C216.524 71.3579 216.67 72.1825 216.302 72.5649C215.933 72.9472 215.346 72.9896 214.815 73.0073C209.206 73.1951 203.596 73.383 197.987 73.5708C197.436 73.5893 196.758 73.5342 196.526 73.0337L196.495 72.9546C196.367 72.5545 196.625 72.0899 196.993 71.8677C197.386 71.6307 197.865 71.5995 198.323 71.5757Z" fill="#00160A"/>
</svg>
