<svg width="735" height="735" viewBox="0 0 735 735" fill="none" xmlns="http://www.w3.org/2000/svg">
<path fill-rule="evenodd" clip-rule="evenodd" d="M535.962 543.727L536.278 543.801L536.903 543.953C547.037 546.485 556.912 550.054 566.323 554.585C571.591 557.122 577.075 560.038 582.905 559.59C584.575 559.462 586.221 559.056 587.896 559.038C593.572 558.976 598.362 563.262 603.91 564.462C608.721 565.502 613.685 564.151 618.6 563.872C623.514 563.592 629.197 564.889 631.471 569.254C631.788 569.862 632.029 570.556 631.88 571.224C631.679 572.124 630.864 572.689 630.013 573.115L629.842 573.199L629.48 573.366C622.938 576.297 615.953 579.295 608.865 578.435L608.37 578.369L607.632 578.273C600.989 577.521 594.286 579.681 587.578 579.494C573.734 579.106 559.62 577.604 546.315 574.796L544.893 574.491L544.176 574.335C521.365 569.463 509.892 572.994 499.23 573.265L498.89 573.273L498.226 573.281C494.119 573.302 480.485 573.218 475.611 574.497C473.152 575.142 471.519 571.416 472.816 569.23C474.062 567.132 476.56 566.245 478.843 565.334L479.127 565.22L479.356 565.126C481.569 564.196 483.874 562.712 484.302 560.41L484.34 560.169L484.375 559.94C484.907 557.017 488.396 555.719 491.389 555.053L491.631 555L493.349 554.637C497.942 553.682 502.626 552.891 507.242 553.608C509.857 554.014 519.84 547.76 522.834 545.184C526.307 542.196 531.425 542.681 535.962 543.727ZM574.136 350.558L573.762 350.681C570.636 351.58 567.648 352.952 564.949 354.772C560.339 357.88 556.454 362.26 551.202 364.088C547.572 365.352 543.482 365.244 539.923 363.789C541.156 366.467 544.578 367.401 547.509 367.096C556.071 366.208 561.907 358.147 569.603 354.291C571.301 353.441 573.088 352.803 574.926 352.357C575.692 354.095 576.454 355.85 577.215 357.618L577.21 357.638C576.624 358.07 576.092 358.571 575.632 359.143C573.869 361.344 573.43 364.681 575.001 367.023C576.578 369.375 579.466 370.092 582.407 370.004L582.408 369.994L583.471 372.601C585.24 376.961 586.994 381.397 588.735 385.909L588.594 385.985C588.172 386.198 587.751 386.413 587.333 386.632C575.899 392.61 565.538 400.955 553.159 404.594C550.862 405.269 548.443 405.777 546.082 405.379C543.721 404.981 541.417 403.509 540.616 401.252C539.73 401.314 539.644 402.622 540.021 403.427C542.128 407.923 548.536 407.9 553.303 406.511C566.046 402.799 576.881 394.55 588.619 388.327L589.479 387.874L590.833 391.481C649.78 552.658 490.767 540.727 445.07 528.893C377.318 511.348 176.075 576.86 131.966 528.893C113.617 508.94 104.463 482.677 102.865 453.299C116.27 447.749 127.933 438.035 141.599 432.896C150.181 429.668 159.463 428.317 168.609 428.964C173.196 429.288 177.888 430.163 181.742 432.671C185.597 435.179 188.46 439.611 188.032 444.19C187.734 447.379 185.942 450.219 184.055 452.807C182.745 454.604 181.353 456.362 179.661 457.804C176.436 460.555 172.246 462.026 168.025 462.424C163.684 462.833 159.073 462.077 155.597 459.445C152.12 456.813 150.084 452.059 151.436 447.913C151.985 446.23 153.034 444.744 154.269 443.476C156.791 440.887 160.379 439.089 163.963 439.558C167.547 440.027 170.817 443.263 170.534 446.866C170.251 450.47 165.598 453.173 162.65 451.081C163.109 449.498 160.779 448.012 159.538 449.097C158.455 450.043 158.818 451.948 159.919 452.872C161.021 453.796 162.558 453.971 163.995 453.982C166.337 453.999 168.799 453.636 170.664 452.22C174.913 448.992 173.531 441.478 168.934 438.77C164.337 436.061 158.216 437.423 153.968 440.651C151.833 442.274 149.993 444.385 149.104 446.915C147.254 452.181 150.075 458.311 154.703 461.431C159.33 464.551 165.306 465.074 170.815 464.184C173.942 463.679 177.054 462.727 179.653 460.917C182.222 459.128 184.168 456.593 185.964 454.028C188.334 450.643 190.595 446.888 190.637 442.756C190.683 438.127 187.811 433.808 183.991 431.193C180.171 428.578 175.516 427.455 170.914 426.953C157.065 425.443 142.998 429.178 130.653 435.632C121.207 440.57 112.494 447.124 102.77 451.306C101.782 428.155 105.421 403.134 112.894 377.781L113.492 377.659C122.724 375.736 132.136 374.679 141.564 374.506C147.82 374.392 154.158 374.677 160.159 376.45C162.678 377.194 165.152 378.202 167.769 378.428C172.789 378.863 177.9 376.386 182.774 377.665C185.233 378.31 186.866 374.585 185.568 372.399C184.271 370.213 181.614 369.342 179.258 368.389C176.901 367.435 174.362 365.859 174.045 363.337C173.647 360.172 169.874 358.835 166.754 358.169L165.61 357.926C160.833 356.919 155.951 356.03 151.142 356.776C148.528 357.183 145.781 358.056 143.32 357.083C139.648 355.632 138.545 350.928 135.551 348.353C132.464 345.698 128.079 345.785 123.956 346.571C139.692 308.482 163.35 271.071 192.249 239.557L192.265 239.576C192.431 239.597 192.597 239.616 192.762 239.635C203.67 240.873 214.847 239.676 225.245 236.157C232.679 233.641 240.741 237.119 247.495 241.117C254.249 245.115 261.112 249.867 268.957 250.098C274.575 250.263 279.948 248.059 285.374 246.592C308.455 240.349 332.72 247.373 356.311 251.265C363.575 252.463 371.752 253.151 377.605 248.685C375.836 244.816 371.602 242.581 367.401 241.905C363.201 241.229 358.918 241.831 354.673 242.106C339.861 243.064 324.805 239.924 311.612 233.124C304.37 229.391 295.786 229.951 287.684 229.095C279.582 228.238 270.576 224.928 267.749 217.287C265.255 210.545 258.206 206.169 251.051 205.477C243.895 204.785 236.74 207.288 230.589 211.008C224.438 214.728 219.106 219.629 213.629 224.285C211.616 225.997 209.512 227.716 207.001 228.535C205.583 228.998 204.102 229.153 202.607 229.232L202.104 229.247C304.061 126.95 462.976 99.3241 574.136 350.558ZM577.999 359.449C578.182 359.877 578.368 360.313 578.553 360.75L581.607 368.055C579.885 367.961 578.246 367.435 577.205 366.114C575.712 364.22 576.191 361.249 577.9 359.545L577.999 359.449ZM173.828 292.562L173.26 292.863C172.389 293.332 171.551 293.817 170.334 294.552L167.454 296.304C163.676 298.579 161.619 299.599 159.017 300.363C157.869 300.701 157.035 300.815 156.272 300.686C155.426 300.543 154.716 300.032 154.489 299.392L154.29 298.83L153.695 298.871C152.62 298.947 152.392 300.111 152.78 300.938C153.802 303.119 156.61 303.555 159.52 302.707C162.476 301.846 164.775 300.727 168.968 298.258L171.653 296.661C175.126 294.607 176.951 293.66 179.257 292.793C182.906 291.42 186.854 290.846 190.743 291.121C193.019 291.282 194.747 291.726 196.118 292.618C197.687 293.639 198.665 295.343 198.517 296.928C198.421 297.954 197.929 298.931 196.924 300.31C196.243 301.244 195.718 301.857 195.126 302.361C193.911 303.398 192.27 304.029 190.47 304.199C188.574 304.377 186.824 303.994 185.578 303.051C184.24 302.038 183.571 300.28 184.03 298.873C184.213 298.311 184.573 297.762 185.086 297.236C186.122 296.172 187.463 295.594 188.664 295.751C189.903 295.914 190.944 297.03 190.859 298.111L190.844 298.233C190.698 299.037 189.765 299.648 189.044 299.535L188.967 299.519L188.965 299.502C188.711 298.428 187.247 297.743 186.314 298.558C185.462 299.301 185.644 300.689 186.493 301.4C187.085 301.898 187.804 302.062 188.774 302.069C190.148 302.079 191.281 301.816 192.172 301.139C194.454 299.406 193.866 295.442 191.339 293.954C189.149 292.663 186.162 293.123 183.918 294.829C182.786 295.689 181.943 296.742 181.525 297.933C180.622 300.504 181.874 303.576 184.276 305.195C186.333 306.582 189.04 306.984 191.889 306.523C193.532 306.258 194.927 305.765 196.079 304.963C197.143 304.222 197.961 303.289 199.035 301.755C200.495 299.67 201.203 298.134 201.221 296.381C201.243 294.177 199.952 292.023 197.972 290.667C196.341 289.551 194.345 288.947 191.892 288.68C186.004 288.038 179.746 289.467 173.828 292.562Z" fill="#0F1F12"/>
<path d="M162.011 421.912C174.357 415.458 188.424 411.723 202.273 413.234C206.875 413.735 211.529 414.858 215.349 417.473C219.169 420.088 222.042 424.406 221.996 429.035C221.955 433.167 219.693 436.923 217.323 440.308C215.527 442.872 213.581 445.407 211.012 447.197C208.413 449.007 205.301 449.959 202.174 450.464C196.665 451.354 190.689 450.831 186.061 447.711C181.434 444.591 178.614 438.461 180.464 433.196C181.352 430.666 183.192 428.554 185.327 426.932C189.575 423.703 195.697 422.341 200.294 425.049C204.891 427.757 206.272 435.272 202.023 438.499C200.158 439.916 197.696 440.279 195.354 440.262C193.917 440.251 192.38 440.076 191.279 439.153C190.178 438.229 189.815 436.323 190.897 435.377C192.138 434.293 194.468 435.779 194.008 437.362C196.956 439.453 201.61 436.75 201.893 433.147C202.176 429.543 198.906 426.306 195.322 425.837C191.738 425.368 188.15 427.167 185.629 429.756C184.393 431.024 183.345 432.511 182.796 434.194C181.444 438.339 183.479 443.093 186.956 445.725C190.432 448.356 195.043 449.114 199.384 448.704C203.605 448.306 207.795 446.835 211.02 444.084C212.712 442.641 214.104 440.884 215.414 439.087C217.301 436.498 219.093 433.66 219.391 430.47C219.819 425.891 216.956 421.459 213.101 418.95C209.247 416.442 204.556 415.568 199.968 415.243C190.823 414.597 181.54 415.949 172.959 419.176C157.215 425.097 144.131 437.087 127.982 441.791C123.215 443.18 116.807 443.202 114.7 438.706C114.323 437.902 114.41 436.594 115.296 436.532L115.375 436.741C116.24 438.88 118.474 440.273 120.761 440.658C123.123 441.056 125.541 440.549 127.839 439.873C140.217 436.235 150.578 427.89 162.011 421.912Z" fill="#0F1F12"/>
<path fill-rule="evenodd" clip-rule="evenodd" d="M341.322 487.544C331.977 499.484 306.466 490.262 295.509 483.287C284.551 476.312 288.758 469.556 288.758 466.251C288.758 462.947 288.006 458.906 286.173 456.05C284.34 453.193 255.36 440.944 255.36 427.489C255.36 414.94 264.047 403.458 276.199 398.257C295.509 389.992 304.956 395.247 322.799 402.506C340.643 409.764 339.176 427.489 339.176 427.489C339.176 427.489 353.811 471.585 341.322 487.544Z" fill="#25E82F"/>
<path d="M329.811 494.156C290.335 491.577 253.362 466.195 235.981 430.657C218.6 395.119 221.079 350.832 241.565 316.989C262.051 283.146 299.665 260.534 339.103 257.421C349.301 256.616 359.719 257.053 369.495 260.07C380.112 263.346 389.656 269.554 400.321 272.671C414.984 276.957 430.578 273.723 443.76 266.001C453.56 260.26 462.417 252.776 472.943 248.507C485.243 243.519 499.646 245.379 511.395 251.553C523.143 257.726 532.45 267.833 539.621 279.001C560.972 312.255 564.138 353.607 566.699 393.043C568.107 414.712 569.403 437.171 561.66 457.458C554.632 475.87 540.766 490.788 526.297 504.169C510.954 518.358 494.441 531.481 475.974 541.264C439.979 560.331 397.871 565.847 357.3 562.206C316.73 558.566 277.413 546.195 239.554 531.163C218.423 522.773 195.641 545.393 173.394 540.704C159.649 537.807 150.017 525.223 136.955 520.056C122.917 514.504 105.541 518.975 95.9272 530.613C104.341 510.249 133.146 501.775 151.247 514.34C160.406 520.698 172.687 520.301 183.516 517.643C194.345 514.986 204.709 510.338 215.769 508.922C231.599 506.895 247.433 511.626 263.342 512.892C282.803 514.44 302.261 510.787 321.441 507.151C342.101 503.234 362.76 499.318 383.42 495.401C393.387 493.511 403.526 491.563 412.499 486.829C422.604 481.497 430.822 472.668 435.416 462.206C401.007 491.043 349.294 492.561 329.811 494.156Z" fill="white"/>
<path fill-rule="evenodd" clip-rule="evenodd" d="M344.262 488.524C334.917 500.464 309.406 491.242 298.449 484.267C287.491 477.292 291.698 470.536 291.698 467.231C291.698 463.927 290.946 459.886 289.113 457.03C287.28 454.173 258.3 441.924 258.3 428.469C258.3 415.92 266.987 404.438 279.139 399.237C298.449 390.972 307.895 396.227 325.739 403.486C343.583 410.744 342.116 428.469 342.116 428.469C342.116 428.469 356.751 472.565 344.262 488.524Z" fill="#25E82F"/>
<path fill-rule="evenodd" clip-rule="evenodd" d="M382.988 432.795C383.275 434.01 384.628 435.227 385.653 434.514C391.007 430.789 396.381 427.052 402.181 424.068C405.918 422.147 409.917 420.475 412.827 417.444C409.299 419.162 405.132 418.901 401.289 418.106C397.446 417.312 393.68 416.023 389.763 415.792C386.407 415.595 383.007 416.197 379.923 417.533C378.068 418.337 376.245 419.488 375.294 421.272C374.343 423.057 374.569 425.584 376.23 426.736C378.021 427.979 380.902 427.396 382.153 429.181C382.87 430.204 382.702 431.58 382.988 432.795Z" fill="#25E82F"/>
<path fill-rule="evenodd" clip-rule="evenodd" d="M434.053 317.201C442.063 331.548 452.258 341.792 445.765 348.307C440.136 353.955 442.1 344.128 435.712 342.02C431.472 340.62 422.424 343.507 414.506 343.175C403.598 342.718 402.087 349.903 393.965 349.521C381.325 348.927 364.125 340.632 358.839 338.59C352.493 336.139 354.394 327.644 358.839 323.616C360.476 322.133 365.837 326.473 366.429 324.486C368.629 317.103 363.856 310.515 367.5 309.529C369.176 309.076 375.291 311.077 377.606 313.449C380.325 316.234 383.061 320.38 388.678 318.695C399.077 315.574 397.742 308.775 405.869 308.775C413.996 308.775 424.619 314.728 429.737 316.48C434.856 318.232 426.043 302.853 434.053 317.201Z" fill="#25E82F"/>
<path fill-rule="evenodd" clip-rule="evenodd" d="M351.462 389.554C352.525 392.723 354.706 395.497 357.176 397.749C359.487 399.856 363.171 401.652 362.711 404.745C367.292 399.904 374.142 397.307 380.781 397.896C383.033 398.096 385.244 398.639 387.498 398.814C395.776 399.457 403.543 395.162 410.731 391.006C415.893 388.021 421.055 385.037 426.217 382.052C427.414 379.566 426.488 376.461 424.64 374.413C422.791 372.365 420.193 371.172 417.618 370.181C414.828 369.106 411.921 368.192 408.932 368.131C406.014 368.071 402.197 368.325 401.143 365.604C399.744 361.993 396.329 359.241 392.503 358.641C388.677 358.041 384.584 359.616 382.147 362.626C379.625 365.741 375.502 366.94 371.736 368.311C367.172 369.973 362.785 372.119 358.672 374.701C355.223 376.866 351.657 379.887 351.462 383.954C351.379 385.684 350.911 387.912 351.462 389.554Z" fill="#25E82F"/>
<path fill-rule="evenodd" clip-rule="evenodd" d="M362.232 298.22C367.652 299.766 372.732 294.712 378.337 294.116C382.917 293.629 387.443 296.182 392.006 295.559C393.653 295.335 395.598 293.799 394.731 292.38C394.224 291.552 393.083 291.451 392.112 291.442C386.837 291.39 381.561 291.339 376.285 291.287C374.57 291.27 372.709 291.204 371.378 290.122C368.606 287.87 365.231 286.491 361.827 285.41C357.172 283.932 352.357 282.953 347.491 282.536C342.179 282.08 336.809 282.296 331.551 283.176C329.488 285.855 327.424 288.534 325.361 291.212C322.829 294.501 319.433 298.156 315.338 297.477C309.994 296.591 304.377 297.443 299.536 299.873C304.404 298.265 309.794 298.282 314.652 299.921C317.736 300.962 320.588 302.627 323.706 303.563C331.456 305.889 339.78 303.469 347.355 300.622C352.145 298.822 357.312 296.816 362.232 298.22Z" fill="#25E82F"/>
<path d="M454.209 359.336C454.333 360.405 455.017 361.316 455.709 362.14C459.198 366.296 463.681 369.808 468.926 371.199C478.632 373.772 489.065 368.471 495.403 360.683C501.74 352.894 504.815 343.022 507.632 333.385C508.445 330.602 509.653 327.396 512.445 326.617C515.463 325.774 517.976 323.313 518.883 320.314C519.789 317.314 519.059 313.873 517.013 311.5C514.699 308.817 509.711 308.045 507.947 311.118C507.262 312.312 505.587 312.59 504.278 312.163C502.969 311.736 501.91 310.788 500.802 309.971C493.94 304.909 484.784 304.62 476.258 304.532C473.559 304.504 470.827 304.48 468.205 305.117C462.783 306.434 458.398 310.417 453.168 312.359C446.48 314.841 438.548 313.624 432.912 309.252C439.033 318.941 444.143 329.268 448.134 340.011C448.425 342.168 453.502 353.251 454.209 359.336Z" fill="white"/>
<path fill-rule="evenodd" clip-rule="evenodd" d="M316.967 321.172C315.553 317.732 313.431 313.69 309.715 313.553C308.7 313.515 307.705 313.798 306.705 313.968C301.369 314.875 294.792 308.166 292.791 307.623C290.791 307.079 288.366 310.851 285.831 311.984C283.296 313.117 280.635 314.926 280.266 317.677C279.971 319.879 281.255 322.192 280.478 324.273C279.376 327.227 274.922 327.731 273.752 330.659C272.729 333.218 274.809 335.898 276.816 337.787C281.293 342.001 286.586 346.45 287.027 352.581C287.192 354.877 289.34 356.436 291.228 357.752C298.185 362.603 304.34 368.601 309.37 375.43C308.219 373.839 308.821 371.523 310.062 370.002C311.304 368.482 313.055 367.48 314.54 366.197C317.45 363.683 319.326 360.098 322.397 357.784C326.263 354.87 331.368 354.409 336.133 353.556C340.899 352.704 346.056 351.001 348.432 346.783C348.664 346.373 348.869 345.917 348.824 345.448C348.694 344.116 346.928 343.816 345.804 343.089C343.699 341.727 343.853 338.679 343.13 336.278C342.077 332.783 338.793 330.325 335.299 329.272C331.804 328.219 328.079 328.341 324.432 328.472C320.716 328.605 318.381 324.611 316.967 321.172Z" fill="#25E82F"/>
<path d="M676.92 547.716C676.512 548.069 676.112 547.174 676.421 546.732C676.86 546.605 677.003 547.303 676.903 547.749L676.92 547.716Z" fill="black"/>
<path fill-rule="evenodd" clip-rule="evenodd" d="M519.826 460.761C517.368 461.686 514.37 460.925 512.651 458.939C511.776 457.928 510.091 458.541 509.093 459.432C508.095 460.322 507.112 461.504 505.775 461.496C504.405 461.487 503.358 460.118 503.209 458.756C503.061 457.395 503.574 456.058 504.078 454.784C502.205 455.14 500.236 455.492 498.423 454.901C496.61 454.31 495.065 452.43 495.543 450.584C495.718 449.909 496.136 449.32 496.618 448.815C498.212 447.141 500.613 446.274 502.909 446.54C504.027 446.67 504.418 445.095 504.322 443.973C504.141 441.837 503.796 439.641 504.395 437.583C504.995 435.524 506.901 433.643 509.027 433.924C511.724 434.282 512.857 437.54 513.156 440.244C513.258 441.168 514.027 442.434 514.748 441.847C517.064 439.959 520.764 440.065 522.968 442.082C523.819 442.86 524.469 443.952 524.41 445.104C524.341 446.446 523.34 447.568 522.225 448.317C521.109 449.066 519.835 449.562 518.75 450.354C521.112 451.937 523.594 454.315 523.108 457.117C522.816 458.803 521.428 460.159 519.826 460.761ZM509.397 451.649C509.455 451.922 509.514 452.194 509.573 452.467C507.598 453.459 506.988 455.936 506.595 458.111C507.184 458.555 508.004 457.977 508.426 457.372C509.349 456.047 509.784 454.453 510.461 452.987C511.138 451.521 512.19 450.078 513.741 449.628C514.386 449.441 515.069 449.442 515.728 449.312C517.131 449.036 518.345 448.192 519.514 447.368C520.166 446.909 520.856 446.402 521.123 445.65C521.72 443.968 519.631 442.324 517.875 442.646C516.12 442.967 514.848 444.465 513.817 445.921C512.785 447.378 511.745 448.972 510.107 449.68C509.632 449.885 509.087 450.005 508.599 449.831C508.112 449.658 507.737 449.108 507.902 448.617C508.067 448.127 508.877 447.982 509.107 448.445C509.517 448.257 509.712 447.705 509.512 447.3C507.429 447.671 505.346 448.042 503.263 448.412C502.119 448.616 500.932 448.837 499.989 449.517C499.047 450.196 498.429 451.477 498.88 452.548C501.903 454.546 505.877 450.786 509.397 451.649ZM514.646 451.851C513.219 452.125 512.68 454.042 513.231 455.387C513.783 456.731 515.015 457.647 516.107 458.606C517.163 459.534 519.002 459.105 519.756 457.918C520.511 456.732 520.269 455.089 519.416 453.971C518.564 452.853 517.211 452.206 515.836 451.915C515.444 451.832 515.039 451.775 514.646 451.851ZM510.835 442.609C510.753 440.521 510.544 438.166 508.923 436.848C508.429 436.446 507.794 437.16 507.594 437.765C507.082 439.308 506.846 440.943 506.899 442.568C506.926 443.381 507.037 444.226 507.49 444.901C507.943 445.576 508.823 446.023 509.589 445.751C510.73 445.345 510.882 443.819 510.835 442.609L510.835 442.609Z" fill="#FFB61D"/>
<path fill-rule="evenodd" clip-rule="evenodd" d="M508.829 277.06C507.855 276.383 506.881 275.706 505.907 275.029C507.374 273.972 509.544 274.283 510.926 275.45C512.308 276.617 512.979 278.458 513.102 280.263C513.195 281.639 512.891 283.216 511.722 283.949C510.597 284.654 509.137 284.309 507.861 283.941C506.808 283.637 505.754 283.333 504.701 283.03C503.595 282.711 502.62 283.817 502.088 284.837C501.556 285.857 500.943 287.078 499.802 287.231C498.284 287.433 497.386 285.661 496.305 284.576C493.157 281.417 486.872 283.683 483.966 280.301C482.728 278.86 482.549 276.68 483.3 274.936C484.052 273.191 485.623 271.88 487.389 271.179C488.106 270.895 488.875 270.691 489.479 270.211C490.082 269.73 490.467 268.854 490.104 268.174C489.275 266.623 488.43 265.02 488.258 263.27C488.086 261.519 488.754 259.565 490.306 258.737C491.808 257.935 493.744 258.409 495.068 259.48C496.393 260.55 497.22 262.108 497.92 263.66C498.12 264.104 498.336 264.579 498.751 264.835C499.165 265.091 499.837 264.981 499.971 264.513C500.648 262.141 503.854 261.155 506.046 262.286C508.238 263.418 509.343 266.05 509.273 268.516C509.248 269.394 509.085 270.298 508.592 271.025C508.246 271.537 507.756 271.932 507.267 272.309C505.797 273.44 504.257 274.478 502.657 275.415C502.586 278.462 505.053 281.361 508.072 281.779C509.097 281.921 510.322 281.699 510.809 280.786C511.535 279.421 510.099 277.942 508.829 277.06ZM503.245 272.008C504.948 271.789 506.464 270.497 506.951 268.851C507.439 267.205 506.87 265.296 505.561 264.185C505.303 263.966 505.001 263.769 504.663 263.748C504.267 263.723 503.9 263.939 503.562 264.147C501.12 265.655 498.377 267.683 498.434 270.552C498.494 273.582 497.479 276.623 495.611 279.009C494.936 279.871 495.447 281.167 496.208 281.953C496.969 282.739 497.973 283.326 498.489 284.29C498.85 284.964 499.932 284.879 500.443 284.312C500.954 283.744 501.041 282.922 501.077 282.16C501.212 279.308 500.973 276.438 500.367 273.648C500.234 273.032 500.777 272.448 501.374 272.243C501.97 272.039 502.62 272.089 503.245 272.008M495.918 273.918C494.895 274.484 493.783 273.435 492.784 272.827C490.01 271.138 486.02 273.327 485.257 276.485C484.958 277.718 485.84 278.991 486.97 279.569C488.1 280.146 489.417 280.193 490.685 280.227C491.532 280.251 492.456 280.25 493.121 279.725C493.556 279.382 493.81 278.865 494.044 278.362C494.723 276.905 495.348 275.422 495.918 273.918ZM492.465 260.555C491.47 260.496 490.622 261.406 490.423 262.383C490.224 263.359 490.52 264.365 490.871 265.298C492.038 268.395 493.863 271.243 496.191 273.596C496.749 269.369 497.1 264.477 494.096 261.45C493.649 261 493.098 260.593 492.465 260.555V260.555Z" fill="#25E82F"/>
<path fill-rule="evenodd" clip-rule="evenodd" d="M286.135 373.372C283.44 374.848 281.705 377.924 281.835 380.994C281.891 382.323 282.122 383.979 280.994 384.683C280.062 381.467 280.499 377.879 282.175 374.982C282.588 374.266 283.1 373.569 283.828 373.179C284.557 372.79 285.547 372.791 286.135 373.372V373.372Z" fill="#00160A"/>
<circle cx="499.8" cy="336.63" r="3.43" fill="#FFB61D"/>
<path fill-rule="evenodd" clip-rule="evenodd" d="M391.408 445.302C391.682 444.129 392.219 442.86 393.34 442.421C395.811 441.453 397.747 445.213 400.393 445.415C401.838 445.526 403.132 444.536 404.56 444.293C406.928 443.889 409.395 445.992 409.372 448.394C409.353 450.431 407.852 452.208 407.719 454.241C406.382 454.009 404.88 454.557 404.192 455.726C403.503 456.896 403.86 458.63 405.061 459.263C406.261 459.896 408.027 459.013 408.069 457.656C408.092 456.924 407.68 456.25 407.572 455.525C407.465 454.801 407.922 453.865 408.646 453.975C410.047 454.877 410.804 456.68 410.466 458.312C410.128 459.944 408.718 461.298 407.073 461.569C406.568 461.652 406.03 461.647 405.584 461.898C404.822 462.325 404.615 463.298 404.32 464.12C403.748 465.715 402.507 467.108 400.9 467.649C399.294 468.189 397.348 467.763 396.269 466.456C395.189 465.149 395.206 463.002 396.443 461.844C395.68 461.456 394.897 462.258 394.18 462.724C392.373 463.899 389.675 462.718 388.919 460.7C388.163 458.682 389.084 456.302 390.73 454.91C391.256 454.465 391.924 453.897 391.715 453.241C390.904 450.686 390.796 447.912 391.408 445.302ZM399.331 454.959C398.682 457.65 398.032 460.347 397.693 463.094C397.592 463.913 397.579 464.884 398.226 465.395C398.925 465.945 399.977 465.604 400.667 465.044C402.521 463.537 402.925 460.54 401.537 458.597C400.559 457.229 401.448 455.273 402.689 454.138C403.93 453.003 405.529 452.21 406.43 450.79C407.332 449.37 406.955 446.955 405.294 446.69C404.001 446.485 402.583 446.842 401.683 447.792C400.868 448.652 400.56 449.86 400.283 451.012C399.965 452.328 399.648 453.643 399.331 454.959ZM397.068 453.001C398.286 452.323 398.491 450.628 398.179 449.269C397.822 447.713 396.976 446.272 395.79 445.203C395.508 444.949 395.185 444.706 394.808 444.67C393.787 444.572 393.305 445.884 393.168 446.9C392.966 448.397 392.776 449.985 393.39 451.364C394.005 452.744 395.748 453.735 397.068 453.001M391.413 460.243C392.261 461.283 394.01 460.679 394.894 459.669C395.777 458.659 396.331 457.31 397.486 456.627C397.987 456.331 397.593 455.466 397.019 455.372C396.445 455.279 395.905 455.624 395.383 455.882C394.348 456.392 393.163 456.602 392.221 457.268C391.279 457.934 390.684 459.349 391.413 460.243Z" fill="#FFB61D"/>
<path d="M675.409 531.873C675.857 531.709 676.018 532.486 675.777 532.898C675.323 533.057 675.161 532.28 675.388 531.856L675.409 531.873Z" fill="black"/>
<path fill-rule="evenodd" clip-rule="evenodd" d="M518.883 320.314C520.043 317.319 519.059 313.873 517.013 311.5C514.699 308.817 509.711 308.045 507.947 311.118C507.262 312.312 505.587 312.59 504.278 312.163C502.969 311.736 501.91 310.788 500.802 309.971C493.94 304.909 484.784 304.62 476.258 304.532C473.559 304.504 470.827 304.48 468.205 305.117C462.783 306.434 458.398 310.417 453.168 312.359C446.48 314.841 438.548 313.624 432.912 309.252C435.191 312.859 441.453 324.519 441.453 324.519C441.453 324.519 440.326 319.072 442.011 318.572C445.108 317.653 449.047 319.509 452.089 319.082C463.427 317.49 469.428 311.964 473.833 311.5C504.278 308.296 515.867 328.094 518.883 320.314Z" fill="#25E82F"/>
<path fill-rule="evenodd" clip-rule="evenodd" d="M526.297 496.329C510.954 510.518 494.441 523.641 475.973 533.423C439.979 552.491 397.871 558.007 357.3 554.366C316.73 550.726 277.412 538.355 239.554 523.323C228.848 519.072 325.114 549.499 402.274 542.104C477.4 534.903 533.435 489.728 526.297 496.329Z" fill="#25E82F"/>
<circle cx="462.56" cy="355.74" r="4.9" fill="#FFB61D"/>
<path d="M308.624 382.729C311.202 387.447 315.501 391.097 317.784 395.965C320.516 401.788 353.758 454.879 354.911 455.07C357.309 455.467 361.413 451.519 360.984 452.85C360.817 452.59 398.801 473.654 391.088 478.797C382.228 484.702 363.927 491.043 340.859 491.043C331.948 489.051 326.4 480.405 321.829 472.5C307.981 448.552 294.099 424.425 284.709 398.404C283.619 395.383 282.465 392.161 279.913 390.212C277.786 388.587 275.013 388.114 272.351 387.825C265.687 387.104 258.954 387.823 252.298 388.181C244.528 388.599 244.528 384.775 246.649 383.607C249.887 381.825 253.41 381.135 255.942 378.846C252.381 380.435 251.04 381.18 247.173 381.682C243.306 382.184 245.097 379.028 245.286 377.539C244.697 379.859 241.348 381.391 239.487 379.586C237.067 377.241 240.485 371.902 243.021 370.483C243.453 370.241 257.589 362.93 258.567 362.339C257.322 362.047 244.895 370.777 240.812 369.461C238.156 368.605 240.942 363.948 243.514 361.041C251.474 352.044 249.367 355.116 252.294 352.154C253.926 350.502 256.566 350.574 258.88 350.759C262.372 351.038 276.404 349.986 287.998 357.609C298.887 364.769 307.442 380.565 308.624 382.729Z" fill="white"/>
<path d="M472.944 248.507C485.243 243.52 499.645 245.379 511.394 251.552C523.143 257.725 532.45 267.833 539.621 279.001C560.972 312.255 564.139 353.607 566.7 393.042C568.107 414.711 569.403 437.17 561.66 457.457C554.632 475.87 540.766 490.788 526.297 504.169C510.954 518.359 494.44 531.48 475.973 541.263C439.978 560.331 397.871 565.847 357.3 562.206C316.73 558.566 277.412 546.194 239.554 531.163C218.423 522.773 195.641 545.393 173.394 540.705C159.649 537.808 150.017 525.223 136.955 520.056C122.917 514.504 105.541 518.975 95.9272 530.613C104.341 510.248 133.146 501.775 151.247 514.339C160.406 520.697 172.687 520.3 183.516 517.643C194.345 514.986 204.709 510.339 215.769 508.922C231.599 506.895 247.433 511.626 263.342 512.892C282.803 514.44 302.26 510.787 321.441 507.151C342.1 503.234 362.76 499.317 383.419 495.401C393.387 493.511 403.526 491.564 412.499 486.83C422.604 481.498 430.822 472.667 435.417 462.206C401.014 490.114 358.378 489.045 334.093 494.156C408.044 479.324 459.227 448.759 494.693 413.155C480.01 439.218 445.57 448.936 430.388 474.712C419.859 492.589 396.173 496.386 375.611 499.149C347.678 502.902 319.948 508.167 292.583 514.914C304.735 517.752 317.125 520.608 329.562 519.6C337.973 518.918 346.196 516.477 354.629 516.195C369.61 515.694 384.03 522.004 398.993 522.889C432.036 524.843 462.135 498.778 473.172 467.572C476.981 456.803 479.045 445.269 484.908 435.465C490.628 425.899 499.882 418.501 510.473 415.028C508.577 420.55 502.227 422.823 497.38 426.079C482.316 436.198 480.84 457.21 474.699 474.287C462.609 507.902 425.364 530.483 389.968 525.658C376.309 523.796 362.918 518.342 349.202 519.722C339.854 520.663 330.703 524.769 321.401 523.455C307.477 521.487 293.552 519.518 279.628 517.55C245.653 512.748 209.578 508.21 178.205 522.106C162.104 529.237 145.259 508.702 127.886 511.576C145.79 514.64 156.933 534.742 174.785 538.094C190.919 541.124 206.08 529.483 222.381 527.548C235.157 526.032 247.788 530.558 259.877 534.956C293.518 547.193 327.895 559.118 363.645 560.957C380.733 561.836 397.874 560.385 414.796 557.852C436.37 554.623 457.983 549.519 477.123 539.052C497.812 527.737 514.688 510.691 531.063 493.723C543.117 481.233 555.399 468.137 561.23 451.789C569.226 429.37 563.883 404.738 560.914 381.122C558.44 361.45 557.674 341.53 553.715 322.101C549.757 302.672 542.256 283.348 528.35 269.214C514.444 255.08 493.238 247.059 474.2 252.597C460.914 256.462 450.153 266.195 437.454 271.689C426.918 276.246 415.09 277.769 403.744 276.03C413.26 286.405 423.973 297.423 437.933 299.247C454.534 301.414 469.857 289.852 486.512 288.154C499.957 286.783 513.925 292.393 522.686 302.684C531.447 312.975 534.757 327.659 531.257 340.713C527.006 356.572 513.563 368.754 498.443 375.153C483.323 381.551 466.589 382.932 450.175 383.334C440.706 383.566 430.888 383.571 422.287 387.54C414.166 391.288 407.507 398.417 398.706 400.002C391.822 401.242 384.609 398.847 377.798 400.44C367.737 402.793 378.876 412.811 370.673 419.095C367.171 421.778 362.695 423.879 358.437 422.727C354.179 421.574 354.081 414.939 356.995 411.626C350.485 416.056 351.978 426.99 358.351 430.125C364.725 433.26 376.14 435.935 370.673 430.07C365.207 424.205 373.07 419.58 379.313 416.192C385.556 412.804 393.405 411.082 399.679 414.411C409.03 419.372 419.608 411.383 429.645 408.02C443.219 403.472 457.937 407.702 472.193 409.009C498.271 411.401 525.161 403.36 545.644 387.043C534.308 400.575 516.846 407.822 499.35 410.171C481.855 412.521 464.096 410.459 446.589 408.19C435.783 406.789 425.547 412.778 416.296 418.537C397.327 430.345 378.356 442.153 359.386 453.961C358.2 455.009 356.528 456.356 354.912 456.154C353.174 455.936 346.918 445.1 345.902 443.515C331.979 421.791 318.057 400.064 303.841 378.531C297.752 369.307 289.786 361.329 280.573 355.224C274.241 353.905 267.768 353.267 261.301 353.326C258.704 353.349 256.003 353.513 253.724 354.759C251.861 355.778 250.443 357.432 249.069 359.051C246.615 361.942 238.773 366.625 241.708 367.723C245.182 369.023 248.544 365.876 251.354 363.456C254.164 361.035 259.161 359.456 261.024 362.663C253.317 366.764 236.184 375.498 241.15 378.029C244.207 379.586 250.005 371.764 253.938 368.639C255.004 367.793 256.243 366.896 257.589 367.098C258.935 367.301 259.815 369.349 258.642 370.039C254.168 372.667 248.914 374.418 246.322 378.846C244.731 381.563 251.325 379.417 253.455 378.029C255.584 376.64 258.916 375.715 260.27 377.867C257.927 382.022 242.264 385.334 248.051 386.081C254.35 386.893 257.928 384.782 264.247 384.775C268.553 384.77 272.94 384.777 277.043 386.081C281.147 387.384 284.998 390.217 286.422 394.281C298.726 429.385 317.245 462.301 340.86 491.042C331.949 489.051 326.399 480.405 321.829 472.5C307.981 448.552 294.099 424.425 284.709 398.404C283.62 395.384 282.465 392.161 279.914 390.212C277.786 388.587 275.014 388.114 272.352 387.826C265.688 387.104 258.954 387.823 252.298 388.181C244.53 388.599 244.529 384.776 246.649 383.608C249.887 381.826 253.41 381.135 255.942 378.846C252.381 380.436 251.04 381.18 247.173 381.682C243.306 382.184 245.097 379.028 245.286 377.539C244.697 379.859 241.348 381.391 239.487 379.586C237.067 377.241 240.485 371.903 243.021 370.483C243.453 370.241 257.589 362.93 258.568 362.338C257.323 362.047 244.895 370.776 240.812 369.46C238.156 368.604 240.942 363.948 243.514 361.041C251.474 352.044 249.368 355.116 252.294 352.154C253.926 350.502 256.566 350.573 258.88 350.758L279.194 352.381C279.155 344.957 270.967 340.65 266.802 334.503C265.507 332.591 264.582 330.084 265.59 328.006C266.434 326.269 268.344 325.385 269.943 324.3C271.541 323.216 273.053 321.365 272.447 319.531C271.43 316.455 272.958 312.995 275.353 310.814C277.749 308.632 280.869 307.458 283.907 306.332C285.254 305.833 286.668 305.326 288.093 305.511C291.809 305.995 294.446 310.952 298.054 309.942C305.135 307.96 313.357 313.09 314.69 320.322C315.217 323.182 318.296 324.872 321.178 325.262C324.06 325.652 327.018 325.163 329.882 325.665C333.889 326.369 337.481 329.121 339.204 332.806C340.87 336.371 341.576 341.38 345.416 342.241C346.917 342.577 347.612 344.487 347.165 345.958C346.717 347.43 345.482 348.513 344.244 349.425C339.135 353.186 332.912 355.454 326.573 355.694C319.631 355.957 316.797 365.057 310.699 368.384C305.98 370.959 306.047 378.011 308.625 382.729C311.202 387.447 315.502 391.097 317.785 395.964C320.516 401.788 328.161 403.024 333.241 406.97C337.953 410.631 337.933 417.116 339.238 422.89C341.69 433.746 353.759 454.879 354.912 455.07C356.641 455.356 359.258 453.385 360.421 452.761C366.448 447.844 372.476 442.927 378.502 438.01C380.963 436.003 383.666 432.725 381.924 430.07C379.725 426.716 372.041 427.368 373.062 423.49C367.144 427.661 378.562 433.773 371.48 435.282C364.398 436.79 355.67 432.98 351.773 426.877C347.876 420.775 351.158 410.759 358.347 409.902C356.777 412.286 352.693 425.696 367.595 418.19C377.592 413.154 359.413 398.298 356.995 396.612C350.527 392.102 352.029 381.526 357.445 375.795C362.86 370.064 370.703 367.476 377.592 363.64C382.193 361.079 386.53 357.866 391.596 356.433C396.663 355 402.889 355.865 405.921 360.169C412.22 369.109 431.044 365.02 432.931 375.791C434.003 381.91 442.421 384.58 447.763 381.411C453.105 378.241 455.218 371.292 454.448 365.128C453.677 358.965 450.581 353.372 447.543 347.954C446.391 350.223 442.835 349.655 440.965 347.928C439.096 346.202 437.931 343.712 435.75 342.401C434.085 341.399 432.058 341.233 430.115 341.196C422.05 341.04 413.955 342.675 406.583 345.946C392.214 352.32 375.742 345.385 361.594 338.536C359.068 337.313 356.45 336.017 354.723 333.805C349.637 327.291 358.645 316.22 366.057 319.875C365.408 316.153 364.759 312.431 364.11 308.708C366.054 303.606 373.81 306.728 377.625 310.635C381.439 314.542 388.657 318.317 391.305 313.541C394.804 307.234 402.857 304.616 410.024 305.423C417.191 306.231 423.715 309.785 430.03 313.27C412.717 285.847 382.157 267.228 349.848 264.419C317.539 261.61 284.225 274.676 262.439 298.7C248.06 314.556 238.869 334.32 229.922 353.766C225.931 362.442 225.584 372.355 226.375 381.872C229.693 421.735 252.953 459.439 287.089 480.29C288.011 470.489 285.102 460.378 279.114 452.564C267.45 447.912 257.432 439.239 251.16 428.361C253.85 416.637 261.606 406.167 272.037 400.178C262.66 409.782 252.591 423.517 259.051 435.282C262.776 442.063 270.681 445.09 277.398 448.93C284.115 452.77 290.764 459.67 288.908 467.181C286.744 475.938 295.38 483.799 303.971 486.547C312.563 489.295 322.145 489.402 329.811 494.156C290.335 491.577 253.362 466.194 235.981 430.657C218.6 395.119 221.08 350.833 241.565 316.99C262.051 283.147 299.665 260.534 339.102 257.42C349.301 256.615 359.719 257.053 369.495 260.07C380.112 263.346 389.656 269.554 400.321 272.671C414.984 276.957 430.578 273.723 443.759 266.001C453.56 260.26 462.418 252.776 472.944 248.507ZM391.722 414.812C388.367 414.615 384.967 415.217 381.883 416.553C380.028 417.357 378.205 418.508 377.254 420.292C376.303 422.077 376.53 424.603 378.191 425.756C379.982 426.999 382.863 426.417 384.114 428.202C384.83 429.224 384.662 430.6 384.949 431.815C385.235 433.03 386.588 434.248 387.613 433.535C392.967 429.809 398.341 426.072 404.141 423.088C407.877 421.167 411.877 419.495 414.787 416.464C411.259 418.182 407.092 417.921 403.25 417.126C399.407 416.332 395.639 415.042 391.722 414.812ZM325.413 405.173C325.098 405.023 324.623 404.924 324.483 405.244C324.397 405.44 324.516 405.661 324.632 405.841C328.206 411.409 331.78 416.977 335.353 422.544C336.18 420.91 336.501 419.024 336.26 417.208C335.789 413.646 333.312 410.722 330.941 408.021C330.643 407.682 330.225 407.478 329.819 407.284C328.35 406.58 326.881 405.877 325.413 405.173ZM396.83 357.736C393.004 357.136 388.911 358.711 386.474 361.72C383.952 364.836 379.829 366.034 376.062 367.406C371.499 369.067 367.112 371.213 362.999 373.795C359.55 375.961 355.983 378.982 355.789 383.049C355.706 384.779 355.238 387.007 355.789 388.649C356.852 391.817 359.033 394.592 361.502 396.843C363.814 398.95 367.497 400.747 367.038 403.84C371.618 398.999 378.469 396.402 385.108 396.991C387.359 397.19 389.571 397.734 391.825 397.909C400.102 398.552 407.869 394.256 415.057 390.1C420.219 387.116 425.382 384.131 430.544 381.147C431.741 378.661 430.815 375.556 428.966 373.507C427.118 371.459 424.519 370.266 421.945 369.275C419.154 368.2 416.248 367.287 413.258 367.226C410.341 367.166 406.523 367.42 405.469 364.699C404.07 361.087 400.656 358.336 396.83 357.736ZM456.484 375.034C456.55 376.042 456.613 377.082 456.292 378.04C455.97 378.999 455.166 379.869 454.159 379.95C453.628 379.992 453.616 380.877 454.073 381.15C454.53 381.423 455.112 381.272 455.62 381.114C460.24 379.673 464.861 378.233 469.482 376.792C470.341 376.525 471.228 376.241 471.9 375.642C469.741 375.974 467.469 375.528 465.597 374.402C464.092 373.496 462.874 372.194 461.676 370.909C459.717 368.806 457.758 366.703 455.798 364.601C456.027 368.078 456.255 371.556 456.484 375.034ZM499.097 297.477C496.286 297.438 493.508 298.024 490.758 298.607C485.442 299.734 480.125 300.862 474.809 301.99C483.845 301.821 492.91 303.293 501.428 306.314C503.364 307 505.488 307.77 507.411 307.048C512.078 305.296 517.848 307.241 520.503 311.459C523.159 315.678 522.416 321.722 518.818 325.172C517.286 326.641 515.349 327.644 513.864 329.16C511.265 331.811 510.38 335.637 509.335 339.199C503.82 357.998 489.435 375.204 470.272 379.282C485.193 378.805 499.921 373.477 511.695 364.298C518.136 359.276 523.776 353.02 527.097 345.558C530.418 338.096 531.253 329.346 528.367 321.706C526.65 317.162 523.717 313.175 520.485 309.551C514.872 303.259 507.528 297.595 499.097 297.477ZM301.804 312.989C297.675 313.945 288.354 305.271 282.863 309.942C277.371 314.613 275.736 313.946 275.367 316.697C275.072 318.898 276.355 321.212 275.579 323.293C274.477 326.247 270.022 326.751 268.852 329.678C267.829 332.238 269.909 334.918 271.917 336.807C276.393 341.02 281.686 345.469 282.127 351.601C282.293 353.897 284.44 355.455 286.329 356.772C293.285 361.623 299.441 367.621 304.47 374.45C303.32 372.859 303.921 370.542 305.163 369.022C306.404 367.502 308.155 366.501 309.64 365.217C312.55 362.703 314.426 359.118 317.497 356.803C321.362 353.889 326.468 353.429 331.234 352.577C335.999 351.724 341.157 350.021 343.533 345.803C343.764 345.393 343.969 344.937 343.923 344.468C343.794 343.137 342.028 342.835 340.905 342.109C338.799 340.747 338.953 337.7 338.23 335.298C337.178 331.804 333.893 329.345 330.399 328.292C326.905 327.24 323.18 327.361 319.533 327.492C315.816 327.625 313.481 323.631 312.067 320.192C310.653 316.753 308.531 312.71 304.815 312.573C303.8 312.535 302.788 312.761 301.804 312.989ZM476.257 304.532C473.559 304.504 470.827 304.48 468.205 305.117C462.783 306.434 458.398 310.417 453.167 312.359C446.48 314.841 438.548 313.625 432.912 309.252C439.033 318.941 444.144 329.268 448.134 340.011C451.455 340.113 454.793 338.715 457.049 336.277C458.259 334.97 460.067 333.232 461.45 334.353C459.096 338.967 453.966 342.02 448.789 341.887C451.654 347.301 453.503 353.251 454.209 359.335C454.334 360.404 455.018 361.316 455.709 362.14C459.198 366.296 463.681 369.808 468.926 371.199C478.632 373.772 489.065 368.471 495.403 360.683C501.74 352.895 504.815 343.022 507.632 333.384C508.445 330.602 509.653 327.396 512.445 326.617C515.463 325.774 517.976 323.313 518.882 320.314C519.789 317.314 519.059 313.873 517.013 311.499C514.699 308.816 509.71 308.046 507.947 311.119C507.261 312.312 505.588 312.589 504.279 312.163C502.97 311.736 501.91 310.788 500.802 309.971C493.94 304.909 484.784 304.62 476.257 304.532ZM495.673 342.604C496.207 341.785 497.179 340.82 497.978 341.383C498.711 341.9 498.292 343.049 497.782 343.787C493.35 350.186 486.451 354.831 478.854 356.527C478.874 356.017 478.894 355.506 478.915 354.997C485.734 353.033 491.798 348.549 495.673 342.604ZM470.332 335.692C471.296 337.514 471.291 339.678 471.806 341.674C472.322 343.671 473.755 345.762 475.817 345.794C476.424 345.804 477.029 345.629 477.633 345.689C478.238 345.749 478.887 346.17 478.887 346.778C477.171 347.345 475.454 347.913 473.738 348.48C473.408 348.589 473.058 348.698 472.719 348.621L472.631 348.596C472.206 348.456 471.916 348.044 471.68 347.654C469.996 344.869 468.995 341.676 468.788 338.428C468.712 337.242 469.144 335.635 470.332 335.692ZM405.592 306.871C402.465 306.467 399.48 308.322 397.202 310.502C394.923 312.683 393.005 315.287 390.365 317.011C387.724 318.736 383.979 319.355 381.533 317.365C380.119 316.214 379.408 314.433 378.342 312.954C375.627 309.182 370.271 307.568 365.924 309.211C366.835 312.136 368.877 314.727 369.122 317.781C369.365 320.834 366.163 324.327 363.576 322.688C360.89 320.987 356.925 322.584 355.672 325.506C354.42 328.429 355.606 332.024 357.994 334.123C359.795 335.708 362.12 336.54 364.383 337.335C374.027 340.726 387.973 348.278 396.242 347.506C399.208 347.229 404.735 343.99 406.616 342.824C410.203 340.598 414.36 338.282 418.419 339.44C423.533 340.898 429.167 340.45 433.986 338.203C436.336 337.107 438.515 339.983 439.478 342.391C440.441 344.799 442.358 347.765 444.816 346.939C446.172 346.483 446.902 344.924 446.859 343.495C446.816 342.065 446.173 340.729 445.543 339.445C441.731 331.665 437.919 323.884 434.107 316.104C428.978 317.54 424.822 311.567 419.628 310.387C417.476 309.898 415.194 310.266 413.05 309.743C410.452 309.108 408.245 307.213 405.592 306.871ZM494.808 322.625C495.753 322.308 497.047 322.769 497.155 323.76C494.325 326.109 491.026 327.813 487.757 329.498C486.368 330.215 484.901 330.951 483.338 330.904C481.154 330.838 479.337 329.284 477.719 327.814L477.813 327.666C478.326 326.991 479.484 327.217 480.355 327.459C484.545 328.625 489.31 327.433 492.458 324.432C493.18 323.744 493.863 322.943 494.808 322.625ZM443.776 325.443C448.578 323.911 453.88 323.994 458.631 325.675C459.65 326.036 460.85 327.041 460.264 327.949C457.09 327.634 453.915 327.318 450.741 327.003C449.965 326.926 449.17 326.852 448.417 327.051C447.122 327.394 445.823 328.521 444.626 327.92L444.513 327.795C443.963 327.155 443.686 326.283 443.776 325.443ZM481.293 315.734C485.792 314.8 490.358 313.862 494.942 314.166C495.573 314.208 496.277 314.314 496.66 314.817C497.042 315.32 496.692 316.282 496.072 316.161C492.518 315.465 488.856 316.149 485.3 316.832C481.103 317.639 476.457 318.734 474.098 322.298C473.708 322.889 473.363 323.561 472.744 323.904C472.124 324.246 471.132 323.996 471.058 323.292C471.015 322.878 471.297 322.509 471.564 322.189C473.359 320.036 475.251 317.808 477.827 316.701C478.931 316.226 480.117 315.978 481.293 315.734ZM490.6 289.932C484.05 289.916 477.582 291.489 471.411 293.683C468.778 294.619 466.188 295.668 463.583 296.679C456.376 299.477 448.906 302.007 441.177 302.196C433.448 302.384 425.328 299.923 420.22 294.12C418.897 292.616 417.674 290.83 415.773 290.199C420.296 296.028 424.913 301.949 430.953 306.187C436.992 310.425 444.779 312.803 451.859 310.726C456.524 309.358 460.436 306.233 464.702 303.902C473.684 298.992 484.127 297.653 494.302 296.529C499.185 295.99 504.255 295.498 508.902 297.091C513.153 298.549 516.63 301.61 519.986 304.599C521.605 306.041 523.224 307.483 524.843 308.924C517.602 297.387 504.221 289.966 490.6 289.932ZM336.566 278.165C347.913 276.954 359.618 279.343 369.583 284.904C371.592 286.025 373.635 287.304 375.93 287.447C377.148 287.522 378.366 287.268 379.586 287.302C383.501 287.411 386.673 288.879 390.905 287.746C394.858 286.687 395.44 287.724 395.861 289.849C396.281 291.974 394.749 294.121 392.781 295.025C390.812 295.928 388.535 295.835 386.396 295.492C384.258 295.149 382.14 294.574 379.974 294.57C372.626 294.556 365.403 301.015 358.665 298.084C357.268 297.477 355.661 297.907 354.203 298.344C349.063 299.884 343.923 301.424 338.784 302.964C334.968 304.107 331.022 305.263 327.065 304.809C320.756 304.085 315.426 299.39 309.114 298.7C303.045 298.036 296.797 301.169 290.942 299.441C291.121 298.595 292.045 298.166 292.854 297.864C297.796 296.016 302.821 294.15 308.083 293.753C312.089 293.451 316.481 293.915 319.762 291.596C323.282 289.109 324.297 284.221 327.528 281.37C329.964 279.219 333.335 278.51 336.566 278.165ZM346.511 280.576C341.199 280.12 335.829 280.336 330.571 281.216C328.508 283.895 326.444 286.574 324.381 289.252C321.849 292.541 318.453 296.196 314.358 295.517C309.014 294.631 303.397 295.483 298.556 297.913C303.424 296.304 308.815 296.322 313.672 297.961C316.756 299.002 319.609 300.667 322.726 301.603C330.477 303.929 338.801 301.508 346.375 298.662C351.165 296.862 356.332 294.855 361.252 296.259C366.673 297.806 371.752 292.752 377.357 292.156C381.936 291.669 386.463 294.222 391.026 293.599C392.673 293.374 394.618 291.839 393.75 290.42C393.244 289.592 392.103 289.491 391.132 289.482C385.857 289.43 380.581 289.378 375.305 289.327C373.59 289.31 371.729 289.244 370.398 288.163C367.626 285.911 364.251 284.531 360.847 283.451C356.192 281.973 351.377 280.993 346.511 280.576ZM426.631 215.463C426.846 215.98 426.351 217.792 426.574 218.329C424.861 217.438 422.52 218.049 421.461 219.664C421.33 219.864 421.213 220.107 421.285 220.335C421.847 222.128 422.463 223.995 423.804 225.31C425.146 226.625 427.451 227.161 428.907 225.974C429.747 225.288 430.141 224.19 430.901 223.415C431.66 222.641 433.199 222.389 433.674 223.364C432.523 224.519 431.43 225.734 430.401 226.999C430.155 227.301 429.912 227.748 430.167 228.042C430.963 228.964 430.937 230.307 431.136 231.509C431.336 232.711 432.095 234.076 433.313 234.046C434.341 234.021 435.034 233.021 435.549 232.131C436.195 231.017 436.842 229.902 437.488 228.788C438.051 228.856 438.416 229.472 438.405 230.039C438.393 230.607 438.104 231.127 437.814 231.615C436.92 233.116 435.933 234.563 434.863 235.945C434.537 236.366 434.163 236.807 433.644 236.928C433.106 237.054 432.553 236.8 432.09 236.498C429.585 234.868 428.347 231.516 429.191 228.648C426.567 229.05 423.808 229.577 421.742 227.206C419.676 224.834 418.956 219.664 420.075 218.316C421.649 216.42 424.161 215.301 426.631 215.463ZM440.905 205.055C442.519 204.732 444.104 206.023 444.693 207.561C445.281 209.099 445.123 210.809 444.955 212.447C444.838 213.58 444.722 214.714 444.606 215.847C444.528 216.609 445.266 217.169 445.885 217.621C448.258 219.351 450.101 222.069 450.04 225.005C450.014 226.212 449.674 227.393 449.221 228.512C448.728 229.732 448.061 230.941 446.986 231.699C445.497 232.748 443.38 232.715 441.822 231.773C440.263 230.83 439.273 229.081 439.074 227.271C438.908 227.868 437.961 227.873 437.572 227.391C437.182 226.909 437.208 226.22 437.294 225.607C437.351 225.206 437.444 224.776 437.749 224.51C438.529 223.829 439.657 224.809 440.157 225.717C441.228 227.663 442.54 230.124 444.757 229.996C445.225 229.969 447.961 230.833 448.591 225.748C449.221 220.663 445.885 218.744 444.239 218.035C442.957 217.869 441.617 218.716 441.216 219.945C441.034 220.503 440.938 221.224 440.381 221.41C439.724 221.628 439.146 220.749 439.327 220.08C439.507 219.41 440.103 218.955 440.615 218.488C443.389 215.956 444.352 211.635 442.917 208.164C442.267 207.453 441.102 207.441 440.241 207.874C439.379 208.308 438.751 209.084 438.15 209.838C436.964 211.327 435.714 212.998 435.797 214.899C435.47 215.201 434.902 215.042 434.625 214.694C434.347 214.345 434.281 213.878 434.226 213.436C434.061 212.12 434.124 210.404 435.372 209.955C437.739 209.101 438.437 205.55 440.905 205.055ZM524.872 198.722C525.965 198.142 527.796 198.418 527.817 199.656C525.932 200.168 524.359 201.702 523.797 203.573C523.386 204.942 523.496 206.409 523.65 207.831C523.902 210.157 524.333 212.626 525.923 214.343C527.649 212.742 527.663 210.033 527.274 207.711C526.885 205.39 526.229 202.953 527.037 200.742C528.861 203.613 529.435 207.25 528.584 210.544C530.392 209.799 532.2 209.054 534.008 208.309C535.026 207.89 536.235 208.493 536.863 209.398C537.49 210.302 537.676 211.432 537.846 212.52C538.251 215.112 538.337 218.398 536.028 219.643C535.355 220.006 534.413 220.812 535.043 221.246C536.929 222.541 537.43 225.425 536.18 227.341C534.93 229.258 532.192 229.982 530.109 229.036C528.026 228.089 526.775 225.648 527.111 223.384C525.523 224.4 523.936 225.417 522.348 226.433C521.911 226.713 521.421 227.004 520.909 226.92C520.269 226.816 519.875 226.184 519.567 225.614C518.35 223.365 517.121 220.621 518.348 218.377C516.301 217.855 514.439 216.474 513.558 214.554C512.677 212.635 512.894 210.198 514.279 208.603C515.664 207.008 518.213 206.479 520.019 207.574C520.864 208.086 521.501 206.662 521.535 205.674C521.628 202.981 522.491 199.985 524.872 198.722ZM530.758 220.732C530.264 220.434 529.674 220.127 529.138 220.34C528.24 220.697 528.407 222.007 528.752 222.91C529.249 224.206 529.837 225.562 530.982 226.347C532.127 227.132 533.989 227.017 534.611 225.777L534.68 225.621C534.988 224.829 534.722 223.881 534.198 223.199C533.638 222.471 532.832 221.98 532.045 221.506C531.616 221.248 531.187 220.99 530.758 220.732ZM533.04 210.917C530.442 210.833 528.629 213.441 527.647 215.847C527.253 216.811 525.821 216.556 524.895 216.079C523.969 215.602 522.654 215.148 522.047 215.994C521.247 217.109 520.027 217.915 518.688 218.214C519.807 219.106 519.904 220.735 520.457 222.054C521.009 223.374 522.877 224.454 523.766 223.333C525.325 221.368 527.141 219.606 529.153 218.106C529.742 217.667 530.527 217.236 531.167 217.597L531.345 217.691C533.214 218.587 535.798 217.464 536.363 215.452C536.945 213.375 535.196 210.988 533.04 210.917ZM426.313 202.546C427.053 200.788 428.938 199.381 430.804 199.778C432.968 200.239 434.004 202.658 434.701 204.757C435.269 206.472 435.642 208.779 434.099 209.717C433.835 207.429 433.518 205.009 432.084 203.206C431.175 202.061 429.3 201.314 428.328 202.405C427.91 202.874 427.809 203.539 427.762 204.165C427.398 209.015 429.298 213.986 432.803 217.357C433.548 218.074 433.652 219.397 432.945 220.151C432.237 220.905 430.807 220.82 430.275 219.934C429.899 219.308 430.006 218.521 429.961 217.791C429.916 217.062 429.309 215.378 429.149 214.991C427.173 213.373 426.422 210.709 426.022 208.187C425.723 206.303 425.573 204.305 426.313 202.546ZM517.21 209.413C516.245 209.158 515.251 210.019 515.067 211C514.883 211.981 515.313 212.98 515.89 213.794C516.153 214.165 516.454 214.518 516.833 214.767C517.81 215.407 519.116 215.243 520.205 214.82C521.294 214.397 522.293 213.743 523.42 213.436C521.845 211.484 519.636 210.052 517.21 209.413Z" fill="#00160A"/>
</svg>
