<svg width="334" height="305" viewBox="0 0 334 305" fill="none" xmlns="http://www.w3.org/2000/svg">
<path fill-rule="evenodd" clip-rule="evenodd" d="M90.1878 77.7287C97.9044 70.9966 108.236 68.3559 117.729 64.5152C145.192 53.404 166.759 31.5162 192.358 16.6045C205.026 9.22511 220.112 3.46204 234.142 7.714C243.907 10.6732 252.029 18.584 255.245 28.2674C261.315 46.5491 250.331 65.5018 244.168 83.7528C232.408 118.581 238.374 157.22 251.326 191.623C254.158 199.146 257.336 206.622 258.658 214.551C261.733 232.981 254.115 252.206 241.207 265.715C228.299 279.224 210.648 287.473 192.478 291.828C170.209 297.166 146.642 297.001 124.45 291.351C113.203 288.488 102.145 284.144 93.0267 276.965C83.9087 269.787 76.8561 259.521 75.2156 248.032C72.7452 230.732 82.4654 214.097 84.1793 196.706C84.942 188.967 84.1037 181.169 83.2082 173.444C81.8796 161.983 80.4236 150.537 78.8407 139.109C77.3489 128.338 75.7406 117.454 76.8224 106.635C77.9042 95.8157 81.9945 84.8765 90.1878 77.7287" fill="#8EFF94"/>
<path d="M189.877 217.872C190.016 219.665 190.108 221.524 189.475 223.208C188.37 226.15 185.369 227.857 182.586 229.318C166.245 237.896 149.721 246.339 132.148 251.978C131.366 250.707 127.272 243.689 130.204 241.18C136.544 235.755 169.449 213.761 169.449 213.761C169.449 213.761 165.665 206.427 167.79 204.277C171.868 200.146 183.843 199.483 186.457 200.015C188.206 200.372 189.771 216.492 189.877 217.872Z" fill="white"/>
<path fill-rule="evenodd" clip-rule="evenodd" d="M139.359 239.048C139.359 239.048 139.95 240.342 141.809 240.342C143.667 240.342 147.156 233.183 149.041 229.379C150.947 225.536 150.835 225.491 154.195 217.377C157.555 209.263 150.915 197.095 150.915 197.095C150.915 197.095 140.056 195.649 138.21 197.095C135.316 199.363 137.163 213.841 137.163 213.841L139.359 239.048Z" fill="white"/>
<path d="M191.427 121.364C185.807 119.342 178.409 118.488 173.161 115.635C173.376 115.606 172.039 111.802 173.271 107.904C174.644 103.556 226.442 128.958 229.366 131.823C229.674 132.124 236.871 140.445 234.101 141.006C232.418 141.347 231.344 140.196 225.222 136.832C219.101 133.468 220.117 139.267 219.101 139.402C218.222 139.518 217.877 138.051 217.89 138.261C210.471 130.757 201.357 124.937 191.427 121.364Z" fill="white"/>
<path fill-rule="evenodd" clip-rule="evenodd" d="M219.65 44.844C221.568 47.8744 222.014 49.7784 222.501 53.3318C219.623 55.6722 186.53 76.695 162.55 86.3153L162.996 86.2815C167.051 85.9568 170.054 85.2444 170.877 84.2474C174.975 99.4816 174.882 115.821 170.612 131.007C170.011 133.144 172.505 134.722 174.595 135.536L174.702 135.578C189.515 141.204 203.579 148.799 216.407 158.101C209.043 161.634 202.298 166.452 196.568 172.271L195.959 172.895C193.93 174.986 191.899 177.15 189.264 178.36C186.366 179.691 182.45 179.477 180.538 176.925L184.012 183.348C176.362 187.852 167.74 190.697 158.912 191.632L158.448 191.679C157.5 191.772 156.465 191.822 155.683 191.281C155.122 190.892 154.79 190.264 154.493 189.646L142.805 165.112C140.676 160.629 138.595 156.062 137.79 151.173C136.042 140.566 140.019 129.686 138.409 119.058C136.686 107.681 128.442 98.5364 123.542 88.1243C121.656 84.1153 118.876 78.2612 121.209 71.8963C123.542 65.5313 150.002 66.3067 170.612 60.8752C197.226 53.8616 219.31 44.3059 219.65 44.844Z" fill="white"/>
<ellipse cx="145.028" cy="47.6977" rx="15.7472" ry="19.0263" fill="white"/>
<path d="M166.465 107.166C165.94 109.438 163.19 110.885 161.008 110.065C160.718 109.956 160.587 109.625 160.492 109.33C159.243 105.454 158.418 101.441 158.036 97.3857C157.967 96.6516 157.914 95.8964 158.124 95.1895C158.581 93.6506 160.406 92.6717 161.941 93.142C162.986 93.4624 163.793 94.332 164.285 95.3089C164.777 96.2858 164.996 97.3732 165.211 98.4457C165.565 100.216 165.919 101.986 166.273 103.756C166.498 104.882 166.723 106.048 166.465 107.166Z" fill="white"/>
<path d="M156.152 204.794C155.808 204.588 153.123 198.253 154.325 197.527C159.361 194.485 198.703 179.87 203.311 177.167C207.919 174.463 202.339 171.264 202.635 169.18C203.103 165.885 213.25 163.451 213.272 161.779C219.878 166.079 226.153 170.103 230.682 176.554C232.369 178.959 234.093 183.675 232.455 186.113C231.484 187.557 229 188.281 227.342 188.805C214.034 193.012 153.538 208.988 156.152 204.794Z" fill="white"/>
<path d="M132.621 254.954C131.506 264.253 129.113 273.397 125.531 282.051C124.878 283.628 124.104 285.286 122.644 286.17C121.185 287.054 118.862 286.678 118.335 285.055C114.25 272.468 112.227 259.215 112.37 245.983C112.376 245.447 112.392 244.882 112.665 244.419C113.079 243.715 113.95 243.45 114.744 243.255C118.805 242.255 122.941 241.561 127.106 241.181C127.568 241.4 126.228 252.869 132.621 254.954Z" fill="white"/>
<circle cx="237.363" cy="62.6014" r="21.8213" fill="#FFB61D"/>
<path fill-rule="evenodd" clip-rule="evenodd" d="M223.337 43.4249C223.963 46.1914 224.957 48.9608 227.285 48.5363C230.311 47.9847 224.132 46.8929 265.04 43.1013C265.507 43.058 264.686 42.1495 264.279 41.9169C262.129 40.6899 259.862 39.6497 257.531 38.8162C253.749 37.4639 222.978 41.8413 223.337 43.4249Z" fill="white"/>
<path fill-rule="evenodd" clip-rule="evenodd" d="M217.889 138.261C210.47 130.757 201.357 124.937 191.427 121.364C185.807 119.342 179.891 118.011 174.644 115.158C175.094 115.096 175.503 114.791 175.692 114.377C190.193 119.358 205.21 124.65 216.163 135.38C216.982 136.183 217.822 137.116 217.889 138.261Z" fill="#00160A"/>
<path fill-rule="evenodd" clip-rule="evenodd" d="M174.575 98.7292C176.786 99.5475 178.507 101.279 180.318 102.788C190.254 111.067 204.048 113.298 214.433 121.008C213.487 120.759 212.589 120.361 211.695 119.964C202.224 115.765 192.734 111.556 183.726 106.437C180.219 104.444 176.657 102.185 174.575 98.7292L174.575 98.7292Z" fill="#00160A"/>
<path d="M127.105 241.181C127.567 241.4 126.961 242.032 126.459 242.126C121.961 242.972 117.463 243.818 112.966 244.664C113.108 258.157 115.163 271.628 119.05 284.55C119.201 285.052 119.378 285.589 119.8 285.902C120.887 286.708 122.286 285.415 122.975 284.249C126.128 278.913 128.356 273.032 129.528 266.946C128.096 267.578 126.362 267.478 125.011 266.685C126.542 266.278 128.174 266.258 129.714 266.627C129.969 265.712 130.224 264.797 130.479 263.882C128.786 263.48 127.093 263.078 125.399 262.676C127.096 262.293 128.887 262.333 130.565 262.79C130.818 261.809 131.072 260.828 131.325 259.847C129.259 259.679 127.214 259.249 125.256 258.571C127.345 258.182 129.552 258.457 131.482 259.347C131.152 257.813 131.588 256.134 132.621 254.953C131.506 264.252 129.113 273.398 125.531 282.051C124.878 283.628 124.104 285.285 122.644 286.169C121.185 287.053 118.862 286.678 118.335 285.055C114.25 272.469 112.227 259.215 112.37 245.984C112.376 245.447 112.392 244.882 112.665 244.419C113.079 243.715 113.951 243.449 114.744 243.254C118.805 242.255 122.941 241.562 127.105 241.181ZM115.805 244.603C116.3 256.874 118.036 269.095 120.979 281.018C121.23 282.032 121.472 283.172 120.931 284.067L120.353 281.832C117.534 270.641 115.79 259.179 115.156 247.656C115.097 246.588 115.089 245.397 115.805 244.603ZM213.272 160.888C219.878 165.188 225.651 170.763 230.179 177.215C231.867 179.619 233.391 182.89 231.753 185.327C230.783 186.771 229 187.39 227.342 187.914C214.034 192.121 200.647 196.078 187.191 199.782C188.51 205.739 189.408 211.789 189.878 217.871C190.016 219.665 190.108 221.524 189.475 223.208C188.37 226.15 185.368 227.858 182.586 229.319C166.245 237.896 149.721 246.339 132.148 251.978C131.008 249.566 129.866 247.154 128.725 244.741C127.886 242.965 129.001 240.813 130.552 239.607C132.102 238.401 134.033 237.796 135.697 236.751C137.361 235.706 138.841 233.925 138.566 231.98C137.054 221.292 136.459 210.474 136.79 199.685C136.816 198.833 136.892 197.882 137.525 197.312C138.01 196.876 138.703 196.778 139.351 196.712C143.351 196.308 147.4 196.397 151.378 196.975C147.532 197.125 143.687 197.276 139.842 197.426C139.296 197.447 138.713 197.482 138.274 197.808C137.608 198.303 137.533 199.254 137.52 200.083C137.335 212.364 138.075 224.66 139.732 236.83C139.855 237.731 140.04 238.732 140.778 239.263C141.516 239.794 142.888 239.262 142.691 238.375C139.782 225.287 138.804 211.77 139.8 198.4C140.192 211.121 140.593 223.914 143.096 236.393C143.359 237.703 143.512 239.358 142.392 240.087C141.389 240.74 139.957 240.085 139.359 239.048C138.762 238.011 138.769 236.745 138.792 235.548C135.401 237.543 132.116 239.717 128.954 242.058C130.053 244.908 131.153 247.759 132.252 250.61C149.992 244.057 167.227 236.134 183.751 226.935C185.172 226.143 186.645 225.29 187.523 223.92C188.744 222.014 188.548 219.564 188.307 217.313L186.458 200.016C179.368 202.438 172.062 204.227 164.655 205.355C165.508 207.401 166.361 209.448 167.215 211.494C167.445 212.048 167.681 212.65 167.536 213.232C167.381 213.852 166.836 214.284 166.324 214.668C161.61 218.205 156.895 221.742 152.181 225.279C148.151 228.302 148.034 234.591 144.323 237.998C146.317 232.567 148.539 226.824 153.181 223.371C157.813 219.927 162.445 216.482 167.077 213.037C165.939 210.57 164.801 208.102 163.663 205.634C160.757 206.179 157.792 206.406 154.837 206.308C154.286 203.151 153.386 200.056 152.158 197.096C154.372 196.332 156.541 195.437 158.649 194.417C158.278 193.669 158.096 192.827 158.125 191.991C159.146 192.705 159.611 194.122 159.213 195.302C157.583 196.044 155.954 196.785 154.325 197.527C154.767 200.116 155.208 202.706 155.65 205.296C179.562 199.868 203.223 193.333 226.532 185.72C227.592 185.374 228.708 184.988 229.422 184.131C231.011 182.222 229.732 179.345 228.295 177.319C224.911 172.547 220.785 168.302 216.112 164.784C214.776 163.779 213.25 162.56 213.272 160.888ZM155.382 210.222C155.615 210.095 155.902 210.074 156.151 210.165C155.4 214.36 154.207 218.476 152.595 222.421C152.362 222.994 151.983 223.658 151.364 223.654C151.32 223.289 151.378 222.912 151.532 222.578C150.049 222.664 148.396 222.696 147.283 221.712C148.743 221.523 150.235 221.588 151.673 221.902C152.257 221.003 152.706 220.016 153.001 218.986C151.293 218.903 149.6 218.525 148.02 217.873C148.182 217.404 148.841 217.408 149.329 217.504C150.6 217.754 151.871 218.004 153.141 218.253C153.566 217.332 153.899 216.367 154.133 215.38C152.169 214.942 150.206 214.505 148.243 214.067C148.363 213.579 149.027 213.522 149.525 213.588C151.151 213.805 152.752 214.207 154.287 214.784C154.652 213.264 155.017 211.743 155.382 210.222ZM154.053 19.7629C157.56 19.8956 161.232 21.9726 162.122 25.3674C162.504 26.8276 162.349 28.3682 162.191 29.8694C161.752 34.0351 161.313 38.2008 160.875 42.3664C160.35 47.3463 159.737 52.5696 156.849 56.6604C153.961 60.7509 147.994 63.13 143.787 60.4143C143.207 62.0387 144.493 63.8509 146.101 64.4739C147.71 65.0967 149.507 64.8531 151.213 64.594C171.317 61.5392 192.044 57.1465 208.243 44.8537C207.928 42.7266 209.045 40.4595 210.924 39.4133C212.155 38.7278 214.18 37.5456 215.541 37.8284C217.428 38.221 218.617 40.4553 219.815 41.9993C221.877 44.6564 222.562 48.0987 223.187 51.4035C223.385 52.4468 223.292 53.9264 222.24 54.0666C228.048 54.1646 233.846 54.817 239.53 56.0119C239.978 54.8219 240.426 53.6316 240.874 52.4416C237.381 46.9363 227.685 47.4413 224.783 53.2795C223.951 52.2862 225.148 50.9689 226.312 50.2834L226.544 50.1545C226.462 50.1971 226.464 50.193 226.542 50.1506C224.687 46.8228 223.322 43.2234 222.502 39.5032L222.782 40.093C224.196 42.9811 225.749 44.9679 227.143 47.9846C233.133 45.2136 239.416 44.6378 245.986 44.0129L245.75 44.1096C243.331 45.1621 241.885 48.1119 242.586 50.6653C245.647 50.6011 248.684 49.6333 251.219 47.9153C249.615 47.1501 248.387 45.6405 247.965 43.9153C251.006 45.4515 253.143 47.1333 251.982 48.4875C250.36 50.3801 244.224 51.7291 242.107 51.9895C241.709 53.452 241.31 54.9147 240.912 56.3772C246.042 57.8052 250.899 60.2101 255.144 63.425C257.824 65.4543 260.296 69.6122 257.714 71.7639C263.115 71.8418 268.517 71.9194 273.919 71.9973C274.983 72.0128 276.49 72.7136 275.969 73.6418L206.338 73.678C205.379 73.6782 204.08 72.5999 204.931 72.1594C208.827 72.3685 212.743 72.1958 216.605 71.6448C215.056 68.2299 214.533 64.357 215.121 60.6535C216.011 55.0503 213.24 49.039 208.401 46.0764C187.171 61.2033 160.022 64.6424 134.092 67.3176C130.943 67.6424 127.573 68.0564 125.196 70.1467C122.717 72.3271 121.899 75.9418 122.336 79.2141C122.772 82.4865 124.284 85.5073 125.842 88.4182C132.421 100.716 140.453 113.123 140.663 127.069C140.768 134.086 138.842 141.068 139.459 148.059C140.036 154.604 142.802 160.729 145.527 166.708C148.725 173.724 151.922 180.74 155.12 187.756C155.489 188.566 155.891 189.415 156.624 189.919C157.843 190.758 159.491 190.357 160.907 189.925C166.24 188.296 171.574 186.667 176.907 185.038C178.477 184.559 180.34 183.736 180.469 182.1C180.541 181.199 180.025 180.367 179.53 179.611C178.058 177.361 176.585 175.111 175.113 172.861C178.47 174.141 181.827 175.421 185.183 176.701C185.893 176.972 186.641 177.247 187.393 177.143C188.321 177.014 189.065 176.339 189.752 175.701C197.028 168.945 204.977 162.915 213.444 157.728C200.217 147.802 185.191 140.282 169.318 135.644C172.901 119.184 172.997 101.974 169.597 85.4748C162.126 87.8503 154.654 90.2253 147.182 92.6008C147.046 96.0696 148.192 99.4401 148.995 102.818C149.797 106.195 150.234 109.884 148.77 113.031C147.306 116.179 143.32 118.355 140.231 116.77C143.906 117.974 147.828 114.717 148.806 110.976C149.784 107.234 148.678 103.299 147.578 99.591C146.805 96.9846 146.032 94.3782 145.259 91.7717C170.113 84.3945 193.578 72.3607 214.072 56.4807C201.758 68.4702 186.221 76.5045 170.877 84.2473C174.975 99.4814 174.882 115.82 170.612 131.007C170.001 133.18 172.592 134.776 174.703 135.577C189.515 141.204 203.579 148.8 216.407 158.101C209.043 161.634 202.298 166.452 196.568 172.272C194.331 174.544 192.163 177.03 189.264 178.361C186.366 179.691 182.45 179.477 180.538 176.925C181.696 179.066 182.854 181.207 184.012 183.348C176.228 187.931 167.438 190.796 158.448 191.679C157.501 191.772 156.466 191.822 155.683 191.281C155.085 190.866 154.746 190.179 154.433 189.522C150.683 181.649 146.932 173.776 143.181 165.903C140.925 161.166 138.643 156.349 137.79 151.172C136.042 140.566 140.464 129.686 138.854 119.058C137.131 107.681 128.887 98.5362 123.988 88.1243C122.102 84.1154 120.681 79.6682 121.398 75.2961C122.115 70.9239 125.507 66.747 129.922 66.3752C128.809 60.8396 129.249 55.0001 131.178 49.6936C131.24 55.3731 130.958 61.0568 130.335 66.7024C135.193 66.2682 140.051 65.8339 144.909 65.3996C143.53 63.2011 142.15 61.0025 140.771 58.8039C146.014 62.6081 153.969 59.3339 157.278 53.7659C160.587 48.1979 160.494 41.3096 160.076 34.8459C155.813 37.4567 150.255 37.8166 145.691 35.7785C143.572 34.8324 140.992 36.1067 139.696 38.0315C138.4 39.9565 138.073 42.3534 137.78 44.6555C136.062 44.0017 136.578 41.3299 135.477 39.8576C133.857 37.6899 130 40.0357 130.096 42.7405C130.194 45.4454 132.501 47.4915 134.691 49.0813C131.513 50.2911 129.057 46.1581 128.225 42.8606C127.254 39.0065 126.412 34.9246 127.5 31.1018C128.588 27.2791 132.244 23.8947 136.175 24.4826C138.874 24.8866 141.515 23.6418 143.992 22.4953C147.177 21.0215 150.547 19.6304 154.053 19.7629ZM200.635 170.967C201.574 171.414 202.381 172.137 202.927 173.024C203.138 173.367 203.314 173.75 203.31 174.153C203.303 175.061 202.435 175.692 201.661 176.167C200.049 177.156 198.437 178.144 196.825 179.133C194.656 180.463 192.4 181.825 189.876 182.142C189.595 181.833 190.009 181.385 190.372 181.18C194.033 179.11 197.695 177.041 201.356 174.972C202.013 174.601 201.702 173.587 201.242 172.989C200.782 172.39 200.225 171.6 200.635 170.967ZM162.144 139.243C162.704 139.477 162.519 140.416 161.969 140.671C161.418 140.926 160.775 140.727 160.203 140.527C160.133 141.235 159.364 141.787 158.671 141.627C157.977 141.467 157.527 140.633 157.774 139.966C158.176 139.62 158.778 139.527 159.266 139.734C159.342 140.061 158.768 140.032 158.496 140.23C158.094 140.523 158.676 141.204 159.142 141.031C159.609 140.857 159.794 140.309 159.922 139.827C160.451 140.158 161.092 140.308 161.713 140.245C162.007 140.162 161.665 139.736 161.361 139.704C161.057 139.672 160.632 139.393 160.862 139.193C161.289 139.21 161.717 139.226 162.144 139.243ZM168.651 134.898C168.908 135.108 168.592 135.5 168.302 135.663L167.672 136.009C161.119 139.505 153.545 140.568 146.168 141.568C145.622 141.642 144.847 141.533 144.84 140.983C153.078 140.582 161.23 138.498 168.651 134.898ZM273.547 74.6965C274.759 74.7023 276.16 74.8148 276.859 75.8049C270.165 95.2836 266.656 115.854 266.515 136.45C266.508 137.589 266.317 139.012 265.236 139.369C264.672 138.219 264.735 136.872 264.811 135.593C265.165 129.629 265.518 123.665 265.872 117.701C262.014 121.179 258.156 124.657 254.299 128.134C258.327 131.697 261.642 136.063 263.991 140.901C262.881 141.141 262.072 139.914 261.552 138.905C259.552 135.022 256.662 131.602 253.169 128.982C249.471 132.99 245.772 136.998 242.074 141.006C240.115 136.483 237.089 132.425 233.312 129.258C232.666 128.716 231.963 128.184 231.135 128.025C230.306 127.866 229.324 128.198 229 128.977C228.545 130.07 226.896 129.534 225.938 128.837C223.693 127.202 221.447 125.567 219.201 123.932C217.507 122.698 215.668 121.229 215.415 119.149C213.668 104.795 210.348 90.6341 205.533 77.0002C205.412 76.658 205.323 76.2016 205.622 75.9953C205.72 75.9274 205.843 75.9051 205.961 75.885C216.667 74.0606 227.621 75.4427 238.48 75.6301C250.173 75.8319 261.852 74.6408 273.547 74.6965ZM246.187 120.779C245.195 119.79 243.829 118.764 242.524 119.274C238.626 120.797 235.286 123.709 233.247 127.364C236.285 130.663 239.324 133.962 242.362 137.261C242.556 137.471 242.794 137.7 243.079 137.673C243.248 137.657 243.394 137.551 243.528 137.446C246.609 135.01 248.067 130.742 251.558 128.945C251.89 128.774 252.293 128.541 252.271 128.168C252.262 128 252.16 127.852 252.062 127.714C250.303 125.243 248.336 122.92 246.187 120.779ZM217.227 120.74C217.331 121.471 217.502 122.305 218.147 122.663C221.127 124.316 223.901 126.338 226.386 128.669C227.152 129.388 228.36 128.616 229.099 127.869C229.427 127.539 229.776 127.158 229.782 126.693C229.786 126.369 229.619 126.071 229.454 125.793C226.822 121.378 223.099 117.619 218.709 114.945C218.558 114.853 218.396 114.758 218.219 114.757C217.947 114.755 217.728 114.967 217.484 115.087C217.24 115.208 216.852 115.169 216.809 114.901C217.18 114.573 217.55 114.245 217.921 113.917C218.15 113.714 218.402 113.444 218.332 113.146C218.296 112.996 218.184 112.878 218.074 112.77C217.408 112.114 216.663 111.538 215.86 111.059C216.316 114.286 216.772 117.513 217.227 120.74ZM256.36 106.805C251.935 109.164 247.97 112.383 244.753 116.23C244.598 116.414 244.436 116.632 244.469 116.87C244.498 117.084 244.675 117.242 244.84 117.381C248.162 120.197 251.072 123.5 253.447 127.152C256.786 122.751 260.9 118.94 265.544 115.947C263.106 114.441 260.8 112.721 258.661 110.815C257.466 109.75 256.232 108.4 256.36 106.805ZM229.748 106.066C229.277 106.122 228.877 106.423 228.502 106.712C225.587 108.962 222.673 111.212 219.759 113.461C223.899 116.599 227.501 120.446 230.359 124.783C230.707 125.31 231.487 125.387 232.064 125.133C232.642 124.878 233.068 124.379 233.488 123.907C235.963 121.127 238.926 118.781 242.201 117.01C239.038 112.945 235.722 108.751 231.124 106.43C230.694 106.213 230.226 106.008 229.748 106.066ZM243.354 96.3967C242.918 96.4353 242.53 96.681 242.164 96.9211C238.578 99.2694 235.093 101.771 231.72 104.416C235.832 107.606 239.524 111.333 242.676 115.474C242.973 115.864 243.575 115.471 243.888 115.093C246.641 111.77 249.962 108.919 253.662 106.698C251.981 102.474 248.744 98.889 244.713 96.7864C244.289 96.5654 243.83 96.3547 243.354 96.3967ZM269.172 96.6877C265.823 98.0689 262.744 100.103 260.16 102.641L259.701 103.107C258.646 104.217 257.723 105.503 257.526 107.005C259.831 110.217 262.856 112.909 266.312 114.827C267.265 108.781 268.219 102.734 269.172 96.6877ZM220.773 95.7483C220.458 95.5994 220.109 95.4594 219.768 95.5354C219.448 95.607 219.202 95.8546 218.975 96.092C217.137 98.021 215.269 100.15 214.816 102.776C214.474 104.76 214.99 106.78 215.502 108.727C215.562 108.954 215.625 109.189 215.766 109.377C215.949 109.619 216.237 109.752 216.506 109.892L216.917 110.122C217.86 110.69 218.683 111.458 219.313 112.362C222.135 108.936 225.741 106.162 229.775 104.313C227.377 100.877 224.563 97.5362 220.773 95.7483ZM256.686 86.9094C256.402 86.6035 255.882 86.2953 255.634 86.6301C252.903 90.3053 249.111 93.1827 244.837 94.8225C248.584 97.3789 251.936 100.514 254.737 104.082C255.165 104.628 255.973 105.218 256.441 104.707C259.693 101.155 263.412 98.0307 267.471 95.4397C263.467 93.1719 259.815 90.2835 256.686 86.9094ZM233.057 85.9426C229.603 89.1431 225.701 91.8612 221.502 93.9934C224.99 96.8641 228.531 99.7935 231.032 103.556L231.341 103.196C234.563 99.4997 238.721 96.6256 243.319 94.9221C239.677 92.1951 236.244 89.19 233.057 85.9426ZM209.389 83.3225C210.955 89.1765 212.52 95.031 214.085 100.885C215.193 97.8949 217.571 95.5828 219.876 93.3791C216.458 90.205 213.146 86.9172 209.946 83.5237C209.806 83.3748 209.592 83.2981 209.389 83.3225ZM275.12 76.3489C274.167 76.228 273.201 76.1124 272.249 76.2424L271.92 76.2971C270.288 76.6159 268.851 77.6037 267.48 78.5647C264.361 80.7509 261.243 82.937 258.124 85.1233C257.879 85.2952 257.602 85.5443 257.674 85.8352C257.707 85.9714 257.812 86.0769 257.913 86.1741C261.465 89.5864 265.393 92.6086 269.6 95.1702C270.999 88.778 272.844 82.4837 275.12 76.3489ZM255.967 76.5705C255.405 76.0689 254.615 76.8079 254.155 77.4045C253.629 78.088 252.991 78.6786 252.327 79.2297C247.903 82.9041 242.132 84.9199 236.383 84.7991C235.356 84.7774 233.968 84.23 234.228 83.2366C236.671 83.7637 239.214 83.5412 241.679 83.133C242.971 82.9191 244.256 82.6548 245.527 82.341C246.326 82.144 247.136 81.9195 247.816 81.4573C248.891 80.7266 249.756 79.3779 251.053 79.4719C249.901 78.7246 248.749 77.977 247.597 77.2297C247.296 77.0339 246.989 76.8355 246.643 76.7346C246.27 76.6256 245.874 76.6359 245.486 76.6477C243.569 76.7057 241.651 76.7645 239.733 76.8225C237.503 76.89 235.252 76.9554 233.059 76.5422C232.963 78.405 232.977 80.2738 233.1 82.135C233.14 82.7277 233.193 83.333 233.433 83.8762C233.731 84.5476 234.286 85.0647 234.826 85.5618C237.213 87.7571 239.6 89.9523 241.987 92.1477C242.947 93.0302 244.431 93.1301 245.673 92.7336C246.915 92.3371 247.973 91.5231 249.004 90.7239C250.379 89.6565 251.755 88.589 253.131 87.5217C254.494 86.4638 256.009 85.0469 255.722 83.345C255.345 81.1015 255.428 78.7809 255.967 76.5705ZM217.886 76.592C214.307 76.7277 210.734 77.0392 207.186 77.5246C210.853 82.7336 215.204 87.4603 220.093 91.5452C220.631 91.9949 221.371 92.4588 221.979 92.1096C225.732 89.9549 229.199 87.3015 232.258 84.2405C227.69 83.2455 223.46 80.7589 220.369 77.2522C219.782 76.5868 218.772 76.5584 217.886 76.592ZM257.599 76.4709C256.579 78.0682 256.693 80.1116 256.844 82.0012C256.92 82.9638 256.996 83.9272 257.073 84.8899C260.943 82.1769 264.812 79.4632 268.681 76.7502C264.987 76.6572 261.293 76.564 257.599 76.4709ZM231.859 77.2444C231.784 76.7483 231.153 76.5071 230.673 76.6535C230.193 76.8001 229.841 77.2011 229.517 77.5842C228.6 78.6694 227.682 79.7549 226.764 80.8401C226.688 80.9307 226.606 81.0369 226.621 81.1545C226.671 81.5378 227.235 81.1921 227.607 81.0891C228.407 80.8681 229.205 82.3229 229.823 81.7698C229.806 81.9659 229.789 82.1624 229.771 82.3586L231.948 83.3186C232.192 81.3022 232.162 79.2528 231.859 77.2444ZM225.74 76.2317C224.44 76.2173 223.085 76.2139 221.918 76.7844C221.661 77.8849 222.438 79.1195 223.541 79.3655C224.103 79.4907 224.87 79.5149 224.997 80.0764C225.085 80.4659 225.675 80.3623 226.006 80.1389C227.159 79.3601 228.069 78.2237 228.575 76.927L228.509 76.844C228.33 76.6731 228.001 76.667 227.833 76.8557C227.338 76.29 226.491 76.24 225.74 76.2317ZM251.589 77.0871C250.746 76.5774 249.713 76.3926 248.746 76.5793C249.678 77.5941 251.051 78.1895 252.429 78.177L252.466 77.9983C252.573 77.5854 252.839 77.2142 253.198 76.9836C252.768 76.5539 251.96 76.6057 251.589 77.0871ZM241.504 57.6848C241.15 57.5855 240.732 57.5032 240.447 57.7346C240.287 57.8648 240.207 58.0676 240.135 58.261C239.586 59.7198 239.037 61.179 238.489 62.6379C240.351 63.2758 241.645 64.9773 242.536 66.7327C243.427 68.488 244.04 70.3937 245.146 72.0217C248.124 72.1342 251.107 72.1124 254.083 71.9573C254.874 71.916 255.683 71.8611 256.41 71.5461C257.137 71.2311 257.777 70.6021 257.887 69.8176C257.95 69.3677 257.839 68.8935 257.984 68.4631C258.112 68.0856 258.413 67.6319 258.13 67.3518C253.522 62.7966 247.742 59.4365 241.504 57.6848ZM237.199 63.259C233.634 63.9459 230.323 65.5605 226.848 66.6125C223.374 67.6646 219.477 68.1147 216.217 66.5178C216.266 68.0402 216.875 69.5381 217.9 70.6643C217.623 70.771 217.468 71.1214 217.575 71.3987C217.738 71.8212 218.297 71.8904 218.75 71.8918L231.588 71.9319C232.409 71.9344 232.957 71.1134 233.347 70.3909C234.632 68.0138 235.915 65.6361 237.199 63.259ZM238.911 63.8635C238.442 63.6793 237.807 63.8222 237.616 64.2883C236.525 66.9499 235.161 69.5004 233.553 71.886C235.974 71.6529 238.414 71.7307 240.844 71.8088C241.752 71.838 242.66 71.8665 243.568 71.8957C242.787 69.3763 241.579 66.9895 240.013 64.8664C239.714 64.461 239.38 64.0477 238.911 63.8635ZM215.156 39.0198C214.459 38.9396 213.826 39.3965 213.273 39.8293C212.591 40.3637 211.909 40.8984 211.227 41.4328C210.528 41.9806 209.809 42.5525 209.393 43.3371C208.978 44.1218 208.948 45.1844 209.565 45.8225C211.68 48.0086 213.828 50.2392 215.198 52.9553C216.568 55.6715 217.065 58.998 215.773 61.7522C215.104 63.1796 215.967 64.9677 217.317 65.7815C218.668 66.5952 220.343 66.6413 221.911 66.4787C224.777 66.1816 227.541 65.2744 230.278 64.3733C232.167 63.7514 234.056 63.1299 235.945 62.508C237.91 61.8613 239.293 59.7701 239.119 57.7092C239.372 57.2832 238.733 56.8946 238.246 56.8059C234.571 56.1377 230.865 55.6441 227.143 55.3264C223.672 55.0301 219.833 54.9972 217.137 57.2034C218.303 55.1818 220.279 53.6436 222.525 53.011C221.873 48.2602 219.823 43.7093 216.696 40.0735C216.28 39.5902 215.789 39.0926 215.156 39.0198ZM142.304 50.009C142.964 49.736 143.728 50.2218 144.061 50.8528C144.394 51.484 144.429 52.2231 144.557 52.925C144.686 53.627 144.961 54.3724 145.58 54.7278C147.471 55.8136 149.651 56.3904 151.832 56.3821C149.72 57.3104 147.314 56.2168 145.272 55.1438C143.722 54.3293 142.172 53.5149 140.622 52.7004C140.32 52.5418 139.967 52.2155 140.151 51.9289C140.684 52.0629 141.197 52.2793 141.665 52.5686C141.465 51.6305 141.419 50.3762 142.304 50.009ZM143.396 50.8479C143.165 50.3198 142.268 50.5227 142.061 51.0608C141.855 51.5989 142.112 52.1974 142.405 52.6936C142.42 52.337 142.704 52.0095 143.054 51.9436C143.159 52.4074 143.187 52.8886 143.136 53.3616C143.528 53.4213 143.9 53.6067 144.183 53.883C144.083 52.8383 143.817 51.8096 143.396 50.8479ZM152.908 44.3547C152.991 44.2101 153.196 44.1509 153.344 44.2287C153.453 44.4197 153.563 44.6111 153.673 44.802C153.22 44.9642 153.133 45.571 153.218 46.0442C153.341 46.7387 153.662 47.3796 153.917 48.0373C154.172 48.6952 154.366 49.4115 154.219 50.1018C154.073 50.7921 153.496 51.4336 152.791 51.4416C152.085 51.4496 151.458 50.6001 151.822 49.9953C152.135 50.3368 152.523 50.6757 152.986 50.678C153.449 50.6799 153.895 50.1366 153.637 49.7522C152.59 48.1909 152.312 46.138 152.908 44.3547ZM242.085 45.509C241.906 45.2351 241.488 45.2704 241.193 45.4114C240.898 45.5523 240.617 45.7709 240.29 45.7659C238.525 45.7381 236.755 46.1334 235.17 46.9094C236.68 48.3493 238.406 49.5638 240.271 50.5002C240.484 50.6071 240.725 50.7125 240.953 50.6428C241.288 50.5403 241.403 50.1331 241.466 49.7883C241.687 48.5635 241.908 47.3383 242.129 46.1135C242.165 45.9096 242.198 45.6825 242.085 45.509ZM148.694 45.2844C149.363 45.3193 149.633 46.3956 149.242 47.011C148.886 47.5706 148.127 47.9228 147.534 47.6252C147.363 46.9837 147.505 46.2667 147.907 45.7385C148.07 45.5246 148.289 45.3323 148.554 45.2912L148.694 45.2844ZM157.152 43.9485C157.524 44.7242 157.797 45.8581 157.044 46.2737C156.722 46.4508 156.328 46.4039 155.967 46.3381C155.441 45.4282 156.11 44.0808 157.152 43.9485ZM222.214 38.9758C230.232 35.1737 239.883 34.6746 249.044 35.5832C257.252 36.3975 268.55 43.445 265.766 44.0715C263.434 44.596 253.855 44.0709 248.747 42.8391C253.199 41.5302 265.518 44.1178 265.07 43.3332C263.888 41.2636 257.329 38.0991 252.565 37.1252C242.52 35.0718 231.935 35.7169 222.214 38.9758ZM143.572 42.8938C144.666 41.9043 146.359 42.1464 147.802 42.4494C148.375 42.5696 148.948 42.6897 149.52 42.8098L149.544 42.884C149.627 43.2563 149.224 43.6304 148.825 43.6594C148.399 43.6902 148 43.4778 147.599 43.3303C146.175 42.8058 144.473 43.1302 143.342 44.1418C142.984 43.8239 143.217 43.2148 143.572 42.8938ZM158.132 40.1526C158.473 40.1961 158.81 40.4791 158.785 40.8225L155.93 42.1252C155.701 42.2299 155.432 42.3348 155.207 42.2209C154.92 42.0754 154.9 41.6417 155.087 41.3791C155.273 41.1167 155.589 40.984 155.887 40.8645C156.302 40.6988 156.717 40.5331 157.132 40.3674C157.452 40.2395 157.79 40.1092 158.132 40.1526Z" fill="#00160A"/>
<path fill-rule="evenodd" clip-rule="evenodd" d="M122.275 258.999C122.587 259.663 122.718 260.411 122.651 261.142C121.932 260.608 121.273 259.995 120.687 259.319C120.117 259.795 119.416 260.114 118.682 260.23C118.607 259.476 119.058 258.698 119.749 258.388C118.864 258.089 117.781 257.464 117.989 256.554C118.842 256.563 119.694 256.716 120.497 257.004C120.489 256.212 120.894 255.427 121.544 254.974C121.731 255.814 121.918 256.653 122.105 257.493C122.596 257.704 123.112 257.857 123.638 257.948C123.353 258.465 122.847 258.856 122.275 258.999L122.275 258.999Z" fill="#FFB61D"/>
<path fill-rule="evenodd" clip-rule="evenodd" d="M145.484 214.914C144.692 214.698 143.977 214.212 143.484 213.556C142.961 213.95 142.311 214.171 141.656 214.178C141.847 213.671 142.141 213.204 142.515 212.812C141.939 212.3 141.409 211.736 140.933 211.13C141.728 210.55 143.071 211.9 143.718 211.158C143.918 210.929 143.926 210.596 144.031 210.311C144.137 210.026 144.473 209.761 144.723 209.932C145.027 210.471 145.152 211.107 145.077 211.721C145.519 211.861 145.961 212.001 146.402 212.141C146.386 212.656 145.798 213.065 145.311 212.9C145.368 213.572 145.426 214.243 145.484 214.914H145.484Z" fill="#FFB61D"/>
<path fill-rule="evenodd" clip-rule="evenodd" d="M224.501 130.979C224.944 130.593 225.629 130.896 226.113 131.228C229.375 133.47 231.871 136.633 234.315 139.747C234.555 140.052 234.809 140.407 234.751 140.791C234.692 141.175 234.11 141.429 233.91 141.096C231.792 137.583 228.962 134.501 225.642 132.093C225.207 131.778 224.748 131.456 224.501 130.979L224.501 130.979Z" fill="#00160A"/>
<path fill-rule="evenodd" clip-rule="evenodd" d="M143.054 51.9436C143.159 52.4075 143.187 52.8887 143.137 53.3616C143.528 53.4214 143.9 53.6064 144.184 53.8828C144.083 52.8381 143.817 51.8095 143.396 50.8478C143.165 50.3197 142.267 50.5225 142.061 51.0606C141.855 51.5987 142.111 52.1974 142.405 52.6936C142.42 52.337 142.703 52.0095 143.054 51.9436Z" fill="#FFB61D"/>
<path fill-rule="evenodd" clip-rule="evenodd" d="M231.603 139.854C228.638 138.171 225.541 136.72 222.35 135.517C221.649 135.252 220.776 135.578 220.418 136.237C219.975 135.914 220.236 135.133 220.743 134.921C221.249 134.708 221.827 134.875 222.347 135.051C225.123 135.989 227.827 137.137 230.43 138.483C230.997 138.776 231.641 139.217 231.603 139.854H231.603Z" fill="#00160A"/>
<path fill-rule="evenodd" clip-rule="evenodd" d="M218.53 130.456C219.477 133.084 219.832 135.924 219.563 138.705C219.533 139.01 219.408 139.4 219.101 139.401C218.747 139.403 218.661 138.911 218.685 138.557C218.886 135.642 218.502 132.688 217.564 129.92C217.815 129.533 218.374 130.022 218.53 130.456H218.53Z" fill="#00160A"/>
<path fill-rule="evenodd" clip-rule="evenodd" d="M233.181 136.832C231.655 135.045 230.128 133.258 228.602 131.471C228.419 131.256 228.229 130.947 228.395 130.719C230.405 132.38 232.05 134.482 233.181 136.832Z" fill="#00160A"/>
<path fill-rule="evenodd" clip-rule="evenodd" d="M62.2397 138.764C61.9934 138.615 61.8571 138.303 61.9144 138.021C62.0746 137.855 62.3771 137.859 62.5322 138.03C62.6805 138.306 62.5409 138.695 62.2514 138.814L62.2397 138.764Z" fill="#00160A"/>
<path fill-rule="evenodd" clip-rule="evenodd" d="M166.465 107.166C165.94 109.438 163.19 110.885 161.008 110.065C160.718 109.956 160.587 109.625 160.492 109.33C159.243 105.454 158.418 101.441 158.036 97.3857C157.967 96.6516 157.914 95.8964 158.124 95.1895C158.581 93.6506 160.406 92.6717 161.941 93.142C162.986 93.4624 163.793 94.332 164.285 95.3089C164.777 96.2858 164.996 97.3732 165.211 98.4457C165.565 100.216 165.919 101.986 166.273 103.756C166.498 104.882 166.723 106.048 166.465 107.166ZM161.55 109.306C161.892 109.603 162.392 109.645 162.839 109.565C164.75 109.222 165.799 107.021 165.737 105.08C165.675 103.138 164.84 101.315 164.416 99.4201C164.12 98.1002 164.008 96.6957 163.303 95.5415C162.598 94.3872 161.013 93.6074 159.869 94.3282C158.713 95.0558 158.725 96.7181 158.909 98.071C159.376 101.508 160.081 104.913 161.016 108.254C161.123 108.638 161.248 109.045 161.55 109.306Z" fill="#FFB61D"/>
<path fill-rule="evenodd" clip-rule="evenodd" d="M164.138 107.365C163.734 107.624 163.168 107.45 162.839 107.102C162.509 106.753 162.362 106.275 162.232 105.813C161.459 103.077 160.924 100.273 160.633 97.4441C160.593 97.0561 160.56 96.6492 160.711 96.2896C160.862 95.9299 161.259 95.6418 161.634 95.7486C162 95.8528 162.179 96.2556 162.306 96.614C163.359 99.5764 164.108 102.647 164.537 105.761C164.617 106.339 164.629 107.049 164.138 107.365ZM161.258 96.2628C161.332 99.6661 161.967 103.057 163.131 106.256C163.264 106.621 163.635 107.063 163.946 106.83C163.723 103.181 162.806 99.5748 161.258 96.2628Z" fill="#FFB61D"/>
<path fill-rule="evenodd" clip-rule="evenodd" d="M240.874 52.442L239.53 56.0121C239.227 55.9485 238.872 55.8709 238.471 55.7835L238.47 55.7833L238.47 55.7833L238.47 55.7832L238.47 55.7832L238.47 55.7832L238.47 55.7832C234.841 54.9913 227.513 53.392 222.526 54.0942C217.704 54.7731 215.535 58.046 215.121 60.6537C214.533 64.3574 215.056 68.2304 216.606 71.6453C216.024 71.7283 216.672 71.7907 218.174 71.8367C218.361 71.8798 218.564 71.8918 218.75 71.8924L221.628 71.9014C227.472 71.9702 237.151 71.9535 245.072 71.9113C245.097 71.9482 245.121 71.985 245.146 72.0216C248.124 72.1341 251.107 72.1127 254.082 71.9575C254.527 71.9343 254.978 71.9068 255.416 71.8312C257.726 71.8041 258.754 71.7789 257.713 71.7639C260.296 69.6122 257.824 65.4548 255.145 63.4255C250.899 60.2103 246.042 57.8052 240.912 56.3771L242.107 51.9892C245.739 51.5424 249.277 50.3493 252.438 48.5056C253.367 50.6237 255.142 47.5399 247.964 43.9153C248.387 45.6407 249.616 47.1507 251.219 47.9158C248.684 49.6338 245.647 50.601 242.586 50.6652C241.863 48.0295 243.427 44.9711 245.986 44.0134C241.641 44.0134 232.229 46.6152 227.359 49.198C224.734 50.5899 224.472 52.9088 224.783 53.2798C227.685 47.4415 237.381 46.9366 240.874 52.442ZM255.416 71.8312C255.757 71.7723 256.092 71.6842 256.41 71.5462C257.137 71.2312 257.777 70.6019 257.887 69.8172C257.913 69.6352 257.91 69.4493 257.907 69.2639C257.902 68.9911 257.898 68.7195 257.984 68.4633C258.012 68.3815 258.048 68.2962 258.084 68.2098C258.215 67.8974 258.351 67.5716 258.129 67.3521C253.521 62.7969 247.742 59.4364 241.504 57.6847C241.15 57.5854 240.732 57.503 240.447 57.7345C240.286 57.8648 240.207 58.0677 240.134 58.2612L238.489 62.6378C240.351 63.2757 241.645 64.9769 242.536 66.7322C242.856 67.3618 243.139 68.0107 243.423 68.6593C243.912 69.7783 244.401 70.8962 245.072 71.9113C249.307 71.8888 253.04 71.859 255.416 71.8312ZM221.628 71.9014L231.588 71.9324C232.409 71.935 232.957 71.1136 233.347 70.3911L237.199 63.2595C234.985 63.6862 232.868 64.4709 230.749 65.2564L230.749 65.2564C229.457 65.7353 228.165 66.2144 226.849 66.6129C223.374 67.665 219.477 68.1147 216.217 66.5177C216.266 68.0403 216.874 69.5386 217.9 70.6649C217.623 70.7716 217.467 71.1215 217.575 71.3988C217.671 71.6482 217.905 71.7746 218.174 71.8367C219.056 71.8637 220.232 71.885 221.628 71.9014ZM217.318 65.7814C215.967 64.9676 215.104 63.1796 215.773 61.7521C218.546 55.8397 220.637 54.7709 227.143 55.3263C230.865 55.6439 234.571 56.138 238.246 56.8062C238.733 56.8948 239.372 57.2832 239.119 57.7092C239.293 59.7701 237.91 61.861 235.945 62.5077L230.278 64.3734C227.541 65.2746 224.777 66.1814 221.911 66.4785C220.343 66.641 218.668 66.5951 217.318 65.7814ZM233.554 71.8857C235.975 71.6526 238.414 71.7305 240.844 71.8087L243.568 71.8963C242.786 69.3768 241.58 66.9897 240.014 64.8666C239.715 64.461 239.38 64.0475 238.911 63.8633C238.442 63.6791 237.807 63.8224 237.616 64.2886C236.525 66.9502 235.161 69.5001 233.554 71.8857ZM240.953 50.6434C240.725 50.7132 240.484 50.6072 240.271 50.5002C238.406 49.5637 236.68 48.3491 235.17 46.9091C236.755 46.1331 238.525 45.7378 240.29 45.7655C240.533 45.7693 240.751 45.6491 240.969 45.5293C241.043 45.4882 241.118 45.4472 241.193 45.4112C241.488 45.2703 241.906 45.2353 242.085 45.5094C242.198 45.683 242.165 45.91 242.128 46.1141L241.465 49.7889C241.403 50.1337 241.288 50.5408 240.953 50.6434Z" fill="white"/>
</svg>
