<svg width="334" height="334" viewBox="0 0 334 334" fill="none" xmlns="http://www.w3.org/2000/svg">
<path fill-rule="evenodd" clip-rule="evenodd" d="M321.943 139.546C318.095 168.236 313.751 183.391 288.399 213.437C263.046 243.483 147.032 263.249 104.141 263.249C61.2506 263.249 8.39292 230.176 11.7289 191.855C15.0649 153.535 32.4693 122.214 74.1276 118.359C116.7 114.418 154.096 132.665 195.893 122.879C232.027 114.418 243.083 82.1697 267.902 71.9954C318.095 51.4185 324.561 120.027 321.943 139.546Z" fill="#8EFF94"/>
<path d="M296.12 153.558C294.702 155.962 276.751 168.124 265.862 169.924C263.755 170.272 261.454 170.392 259.623 169.292C258.542 168.642 257.736 167.628 256.971 166.625C255.221 164.332 253.551 161.978 251.967 159.568C251.134 158.301 250.308 156.979 250.025 155.49C249.276 151.547 252.454 148.005 255.596 145.507C262.817 139.763 271.272 135.579 280.218 133.322C281.802 132.922 283.481 132.584 285.05 133.038C287.596 133.775 289.119 136.351 290.09 138.818C291.062 141.284 291.819 143.981 293.761 145.786C294.205 146.198 297.538 151.155 296.12 153.558Z" fill="white"/>
<path fill-rule="evenodd" clip-rule="evenodd" d="M199.662 258.34C182.24 261.319 190.543 248.657 192.946 232.808C196.894 206.765 201.762 167.189 201.762 167.189C201.762 167.189 204.937 227.493 204.937 242.177C204.937 256.861 201.762 257.981 199.662 258.34Z" fill="white"/>
<path d="M181.046 243.992C181.491 248.185 181.96 252.468 183.742 256.29C182.77 247.635 181.797 238.98 180.825 230.325C180.705 229.257 180.74 227.896 181.724 227.46C182.555 237.233 183.796 246.971 185.44 256.641C185.636 257.789 183.911 258.445 182.943 257.798C181.974 257.151 181.665 255.893 181.444 254.749C179.84 246.417 178.957 237.946 178.811 229.461C176.768 229.864 175.335 231.844 174.922 233.885C174.508 235.926 174.907 238.034 175.305 240.078C176.586 246.657 177.867 253.236 179.149 259.814C179.748 262.892 180.347 266.071 179.686 269.136C177.143 257.526 175.099 245.806 173.56 234.021C154.049 245.952 128.907 248.171 107.607 239.842C102.955 238.022 98.3354 235.612 95.2627 231.673C92.8423 228.571 91.5508 224.719 90.8741 220.843C88.471 207.076 93.3955 193.034 100.079 180.762C102.616 176.105 105.504 171.255 105.299 165.956C105.229 164.132 104.835 162.112 105.901 160.63C106.052 160.904 98.9269 109.94 101.785 98.6672C108.666 71.5281 131.018 67.8527 145.329 68.1874C154.931 68.412 215.797 80.508 224.591 96.9573C236.149 118.576 233.695 136.752 231.642 148.737C231.031 152.306 201.77 166.926 201.762 167C200.089 182.551 188.863 216.437 179.448 228.927C179.981 233.948 180.514 238.97 181.046 243.992Z" fill="white"/>
<path fill-rule="evenodd" clip-rule="evenodd" d="M40.5526 180.715C35.0652 178.525 28.5258 179.174 23.5785 182.401C23.0995 182.714 22.4109 182.366 22.1738 181.846C21.9367 181.326 22.0254 180.721 22.1467 180.163C23.7268 172.892 30.0213 167.328 37.0213 164.771C44.0214 162.215 51.6783 162.207 59.1194 162.644C59.8577 162.688 60.6294 162.745 61.2592 163.133C61.8891 163.52 62.3128 164.347 61.9989 165.016C59.0717 171.249 56.8667 177.82 55.4419 184.555C55.2108 185.647 54.0791 186.372 52.9645 186.463C51.85 186.554 50.7578 186.143 49.7463 185.667C46.594 184.183 43.7886 182.007 40.5526 180.715Z" fill="white"/>
<path d="M155.556 275.598C158.761 275.508 161.987 276.217 164.859 277.642C164.092 278.746 162.549 278.901 161.205 278.952C149.5 279.396 137.795 279.84 126.09 280.285C125.769 280.244 125.708 279.748 125.936 279.517C126.164 279.286 126.52 279.256 126.844 279.241L161.122 277.569C159.142 277.387 157.209 276.703 155.556 275.598ZM212.784 246.568C213.048 246.178 213.642 245.972 213.999 246.279C212.593 252.788 211.187 259.298 209.78 265.807C211.172 264.773 212.931 264.243 214.663 264.335C213.129 265.479 211.962 267.107 211.371 268.927C212.39 268.143 214.123 268.688 214.509 269.915C215.103 269.476 216.085 269.773 216.336 270.467C216.587 271.161 216.023 272.018 215.286 272.061L254.515 272.406C246.368 273.95 237.989 272.764 229.698 272.611C224.311 272.511 218.916 272.852 213.584 273.628C214.055 272.702 214.395 271.708 214.589 270.686C204.316 273.569 193.423 270.156 182.753 270.222C179.87 270.24 176.419 270.912 175.358 273.592C174.891 270.671 174.424 267.75 173.957 264.829C173.532 267.184 173.107 269.54 172.683 271.896C172.579 272.473 172.444 273.102 171.985 273.467C171.395 273.936 170.479 273.748 169.915 273.247C169.351 272.745 169.057 272.015 168.792 271.308C167.23 267.138 166.031 262.832 165.211 258.456C165.159 263.835 167.364 268.949 169.529 273.874C168.586 273.613 167.643 273.352 166.7 273.09C167.464 274.047 168.227 275.004 168.99 275.961C166.628 275.076 164.339 273.996 162.154 272.735C163.055 273.992 163.957 275.25 164.858 276.507C162.649 275.465 160.711 273.852 159.284 271.87C161.281 271.328 163.516 271.746 165.182 272.973C164.409 271.872 164.057 270.483 164.213 269.147C165.279 270.082 166.345 271.018 167.411 271.954C165.611 267.832 164.361 263.47 163.706 259.02C163.576 258.135 163.674 256.935 164.549 256.749C165.448 256.559 166.016 257.671 166.249 258.561C167.252 262.384 168.254 266.208 169.257 270.032C169.654 268.686 170.051 267.34 170.448 265.994C170.642 267.61 171.177 269.184 172.006 270.584C172.285 267.728 173.155 264.931 174.544 262.42C174.847 265.216 175.15 268.012 175.453 270.808C184.571 267.982 194.344 270.965 203.881 271.368C205.807 271.449 207.845 271.395 209.493 270.396C211.141 269.397 212.177 267.147 211.23 265.468C210.248 267.062 208.981 268.479 207.507 269.633C208.863 266.704 210.246 263.654 210.223 260.426C208.868 263.106 207.513 265.786 206.158 268.465C205.459 267.293 204.761 266.12 204.062 264.948C203.124 266.621 203.411 268.892 204.735 270.28C203.58 269.506 202.426 268.732 201.271 267.958C201.096 268.427 200.92 268.896 200.745 269.365C199.618 269.007 198.703 268.045 198.402 266.902C199.581 266.424 201.007 266.62 202.012 267.399C202.751 265.616 203.491 263.833 204.231 262.05C204.746 263.543 205.263 265.035 205.778 266.528C209.72 261.134 212.071 254.594 212.466 247.925C212.494 247.455 212.521 246.958 212.784 246.568ZM212.853 270.292C212.704 269.816 211.894 269.778 211.701 270.239L211.586 270.196C211.443 270.365 211.442 270.639 211.584 270.809C212.04 270.741 212.479 270.562 212.853 270.292ZM105.901 160.629C107.075 162.764 107.521 165.29 107.151 167.698C127.351 166.828 147.581 166.654 167.793 167.173C168.029 168.103 166.682 168.534 165.724 168.52C146.862 168.239 127.991 168.559 109.15 169.483C108.553 169.512 107.926 169.551 107.42 169.869C106.888 170.203 106.578 170.79 106.292 171.349C100.945 181.812 95.58 192.428 92.9952 203.89C91.666 209.785 91.1567 216.237 93.881 221.63C94.9144 223.676 96.3759 225.483 98.0079 227.093C106.769 235.735 119.89 238.385 132.194 238.178C140.048 238.046 147.884 236.917 155.455 234.827C163.482 232.611 171.487 229.118 176.966 222.847C180.183 219.165 182.369 214.706 184.284 210.206C187.941 201.615 190.746 192.662 192.645 183.52C193.833 183.77 193.85 185.451 193.575 186.634C190.182 201.275 186.237 216.88 175.059 226.926C164.963 235.999 150.737 238.814 137.185 239.573C129.356 240.011 121.405 239.874 113.822 237.878C106.24 235.883 98.9994 231.891 94.1856 225.702C95.5897 231.055 100.346 234.875 105.297 237.347C118.297 243.839 133.649 243.496 148.003 241.24C157.565 239.737 167.38 237.269 174.821 231.08C181.182 225.788 185.236 218.232 188.287 210.541C191.665 202.029 194.007 193.106 195.247 184.032C196.02 183.544 196.592 184.908 196.494 185.817C194.822 201.368 188.863 216.436 179.448 228.926C179.981 233.948 180.514 238.97 181.047 243.992C181.492 248.185 181.96 252.468 183.742 256.29C182.77 247.635 181.798 238.98 180.825 230.326C180.705 229.257 180.741 227.896 181.724 227.46C182.556 237.233 183.796 246.972 185.441 256.641C185.635 257.789 183.912 258.445 182.943 257.798C181.975 257.152 181.665 255.893 181.444 254.749C179.84 246.417 178.957 237.946 178.811 229.461C176.768 229.864 175.335 231.845 174.922 233.885C174.509 235.926 174.907 238.034 175.305 240.078C176.586 246.657 177.867 253.236 179.149 259.815C179.748 262.892 180.348 266.071 179.687 269.135C177.144 257.525 175.099 245.806 173.561 234.021C154.049 245.952 128.907 248.171 107.608 239.841C102.956 238.022 98.3354 235.612 95.2628 231.673C92.8425 228.571 91.5508 224.719 90.8741 220.843C88.471 207.077 93.3962 193.034 100.08 180.761C102.616 176.105 105.504 171.255 105.3 165.956C105.229 164.132 104.836 162.112 105.901 160.629ZM201.999 186.185C202.406 185.7 203.262 185.922 203.618 186.446C203.974 186.97 203.975 187.65 203.963 188.284C203.614 207.144 203.843 226.04 205.649 244.817C206.08 249.303 206.598 253.874 205.652 258.281C205.32 258.522 204.986 257.972 204.938 257.564C202.673 238.529 202.331 219.324 201.992 200.159L201.764 187.238C201.757 186.87 201.763 186.467 201.999 186.185ZM191.889 150.21C186.105 152.938 180.163 155.78 175.854 160.505C175.28 161.134 174.728 161.812 174.444 162.615C173.542 165.169 175.59 167.762 177.596 169.582C186.839 177.971 198.709 183.423 211.095 184.969C211.319 183.54 212.449 182.385 213.747 181.747C215.045 181.108 216.507 180.902 217.94 180.706C223.011 180.01 228.448 179.388 233.017 181.697C234.152 182.271 234.249 183.99 233.497 185.016C232.746 186.043 231.46 186.514 230.227 186.828C224.778 188.212 219.044 187.538 213.464 186.856C212.094 186.689 211.6 188.677 211.964 190.008C212.7 192.706 214.656 194.946 216.959 196.532C219.262 198.118 221.908 199.121 224.549 200.04C230.986 202.278 237.566 204.106 244.234 205.51C246.999 206.092 249.86 206.633 252.216 208.192C252.081 208.826 251.202 208.876 250.563 208.771C240.877 207.177 231.351 204.616 222.172 201.139C219.208 200.016 216.221 198.763 213.836 196.675C211.451 194.588 209.73 191.507 210.018 188.35C210.082 187.64 210.046 186.647 209.339 186.557C197.551 185.06 186.237 180.018 177.241 172.254C174.422 169.821 171.605 166.418 172.45 162.791C172.793 161.323 173.71 160.056 174.704 158.922C179.043 153.975 185.333 150.785 191.889 150.21ZM231.429 182.8C227.259 181.42 222.727 181.998 218.375 182.59C216.373 182.863 214.073 183.334 213.132 185.123C215.069 184.967 217.026 185.055 218.941 185.384C222.906 186.067 227.021 185.857 230.895 184.774C231.262 184.671 231.643 184.553 231.922 184.291C232.201 184.03 232.344 183.584 232.148 183.256C231.999 183.007 231.704 182.891 231.429 182.8ZM133.573 143.297C133.628 143.949 132.873 144.33 132.252 144.536C125.219 146.861 118.541 150.257 112.521 154.572C107.163 158.412 102.009 163.122 95.5265 164.321C93.6236 164.673 92.3967 166.456 91.1349 167.923C86.8938 172.855 80.4691 175.259 74.2364 177.119C69.9865 178.387 65.2495 179.46 61.254 177.535C60.7161 177.275 60.1732 176.509 60.6827 176.198C64.7883 178.041 69.5656 176.968 73.8722 175.662C80.7727 173.568 87.9544 170.603 91.9415 164.594C89.5036 164.413 87.4794 161.86 87.9796 159.467C88.48 157.074 91.5081 155.555 93.6739 156.689C95.8395 157.823 96.2449 161.322 94.3253 162.836C100.298 161.942 105.356 158.123 110.203 154.52C117.231 149.297 124.854 144.098 133.573 143.297ZM277.991 132.431C279.575 132.032 281.254 131.693 282.823 132.147C285.37 132.884 286.892 135.461 287.863 137.927C288.835 140.393 289.593 143.091 291.535 144.895C291.979 145.307 292.497 145.693 292.695 146.265C292.893 146.837 292.532 147.638 291.929 147.591C289.381 146.623 287.995 143.914 287.009 141.373C286.023 138.831 285.079 136.057 282.864 134.468C281.316 140.635 278.96 146.599 275.876 152.159C275.513 152.813 275.098 153.501 274.417 153.812C273.889 154.053 273.282 154.027 272.702 153.995C265.417 153.585 258.147 152.908 250.911 151.967C250.141 151.867 249.514 152.707 249.53 153.483C249.547 154.259 249.997 154.95 250.432 155.593C252.152 158.139 253.873 160.686 255.594 163.232C256.426 164.463 257.308 165.741 258.613 166.452C260.359 167.401 262.497 167.147 264.437 166.717C274.669 164.447 283.485 158.134 291.737 151.672C292.256 151.266 292.942 150.84 293.524 151.149C294.031 151.419 294.133 152.145 293.894 152.667C293.655 153.19 293.175 153.554 292.713 153.896C283.845 160.466 274.524 167.234 263.635 169.034C261.528 169.382 259.227 169.501 257.397 168.401C256.315 167.751 255.51 166.738 254.744 165.735C252.994 163.442 251.325 161.087 249.74 158.677C248.908 157.411 248.082 156.089 247.799 154.6C247.05 150.657 250.228 147.114 253.369 144.616C260.59 138.872 269.045 134.688 277.991 132.431ZM113.143 79.6918C125.758 71.0938 141.14 65.8593 156.312 67.559C161.432 68.1327 166.433 69.4723 171.392 70.8706C186.905 75.2446 202.417 80.3143 216.136 88.7749C217.326 89.5091 218.661 90.5961 218.439 91.977C201.327 81.9803 182.088 76.3239 163.067 70.7592C175.79 75.8832 189.555 81.9304 195.775 94.1547C198.406 99.3274 199.406 105.158 200.19 110.909C202.518 128.006 203.23 145.323 202.313 162.554C209.705 158.961 217.097 155.369 224.489 151.776C226.398 150.848 228.402 149.838 229.555 148.056C230.634 146.387 230.793 144.305 230.9 142.321C231.522 130.7 231.403 119.04 230.542 107.435C233.024 118.163 234.125 129.21 233.808 140.217C233.722 143.197 233.462 146.375 231.643 148.737C230.321 150.453 228.341 151.511 226.423 152.519C219.573 156.117 212.724 159.716 205.874 163.315C197.936 167.485 188.376 168.462 179.758 165.984C185.923 165.663 192.087 165.343 198.252 165.022C198.755 164.996 199.294 164.956 199.689 164.643C200.266 164.185 200.311 163.341 200.308 162.604C200.216 144.387 200.118 126.097 197.462 108.075C196.625 102.396 195.466 96.5803 192.277 91.8081C188.765 86.5525 183.168 83.1143 177.648 80.0356C167.745 74.5131 157 69.4847 145.664 69.729C136.306 69.9306 127.395 73.7304 119.198 78.2504C112.691 81.839 106.059 86.3992 103.487 93.3715C102.067 97.2233 102.045 101.432 102.113 105.537C102.357 120.175 103.528 134.798 105.614 149.29C105.842 150.868 105.686 153.038 104.117 153.321C102.11 137.782 100.101 122.216 99.5616 106.557C99.4052 102.017 99.3938 97.3445 101.016 93.101C103.202 87.3818 108.083 83.1401 113.143 79.6918ZM185.176 138.339C185.718 138.179 186.33 138.025 186.826 138.297C187.322 138.57 187.41 139.471 186.865 139.623C161.473 146.669 136.37 154.755 111.639 163.853C111.152 164.032 110.635 164.214 110.125 164.121C109.615 164.027 109.137 163.543 109.249 163.037C109.355 162.558 109.884 162.322 110.346 162.159C135.024 153.42 160.071 145.764 185.176 138.339ZM91.8888 157.521C91.5411 157.521 91.1997 157.632 90.8946 157.799L90.6983 157.918C89.7476 158.559 89.2393 159.841 89.6065 160.929C90.0346 162.197 91.4203 162.899 92.7433 163.102C93.3088 162.103 93.8904 161.044 93.8829 159.896C93.8754 158.748 93.0368 157.52 91.8888 157.521ZM280.641 133.98C279.165 133.818 277.703 134.316 276.31 134.831C271.909 136.455 267.596 138.316 263.395 140.402C258.956 142.605 254.514 145.17 251.524 149.122C257.531 149.792 263.54 150.463 269.548 151.133C270.679 151.259 271.901 151.368 272.884 150.792C273.656 150.34 274.146 149.538 274.588 148.76C277.223 144.117 279.262 139.137 280.641 133.98ZM193.288 104.579C193.899 104.288 194.647 104.084 195.23 104.428C195.812 104.773 195.832 105.869 195.168 105.996L194.977 106.036C193.014 106.493 191.478 108.155 190.691 110.021C189.878 111.947 189.737 114.082 189.664 116.171C189.443 122.489 189.742 128.825 190.559 135.093C190.684 136.051 190.832 137.038 191.335 137.863C191.838 138.687 192.792 139.314 193.742 139.139C195.369 138.839 197.118 139.268 198.42 140.289C196.467 140.413 194.514 140.537 192.561 140.661C191.403 140.734 190.021 140.704 189.377 139.74C189.061 139.266 189.009 138.67 188.966 138.102C188.547 132.534 188.127 126.966 187.708 121.399C187.471 118.257 187.239 115.057 187.942 111.986C188.646 108.914 190.443 105.933 193.288 104.579ZM211.668 53.8872C213.227 53.9192 214.671 54.6634 216.051 55.3901C222.667 58.8752 229.402 62.4481 234.61 67.8129C234.779 72.2922 233.685 76.7106 232.645 81.0708C228.426 98.7553 224.972 116.622 222.295 134.605C222.038 136.328 221.552 138.362 219.917 138.965C218.745 139.398 217.381 138.845 216.548 137.914C215.715 136.982 215.316 135.744 215.038 134.525C214.353 131.518 214.27 128.374 214.797 125.335C215.408 121.809 216.821 118.465 217.515 114.954C217.843 113.292 218.008 111.604 218.169 109.918C219.023 100.955 219.747 91.9797 220.342 82.9956C220.426 81.7261 220.502 80.4167 220.086 79.2143C219.346 77.0757 217.192 75.7238 215.016 75.104C213.768 74.7485 212.453 74.569 211.297 73.9799C210.141 73.3908 209.137 72.2427 209.222 70.9477L209.266 70.1645C209.452 66.2503 209.124 62.3118 208.29 58.4829C208.134 57.765 207.96 57.0234 208.105 56.3032C208.412 54.7749 210.109 53.8552 211.668 53.8872ZM213.755 56.1538C213.356 60.9588 213.192 65.7839 213.264 70.6049C216.34 71.2541 219.347 72.2339 222.215 73.5229C222.792 73.7824 223.399 74.0865 223.711 74.6372C223.966 75.0871 223.981 75.629 223.988 76.1459C224.078 82.2181 224.097 88.3064 223.454 94.3452C222.947 99.1058 222.032 103.812 221.245 108.535C220.31 114.153 219.556 119.802 218.987 125.469C218.575 129.581 218.273 133.831 219.552 137.761C220.208 137.641 220.461 136.851 220.585 136.196C224.525 115.427 228.465 94.6585 232.405 73.8901C232.692 72.3806 232.978 70.8197 232.641 69.3208C232.05 66.6964 229.721 64.8707 227.475 63.3901C223.151 60.5397 218.549 58.1128 213.755 56.1538ZM218.436 117.502C216.712 122.633 216.061 128.122 216.537 133.514C216.661 134.917 216.89 136.387 217.765 137.491L217.637 136.38C217.368 133.786 217.311 131.169 217.47 128.565C217.695 124.869 218.35 121.204 218.436 117.502ZM219.257 131.455C219.275 131.121 219.721 130.95 220.025 131.088C220.328 131.227 220.498 131.552 220.604 131.869C220.99 133.023 220.791 134.358 220.085 135.349C219.53 134.732 220.214 133.748 220.04 132.936C219.922 132.387 219.422 131.991 219.257 131.455ZM218.943 113.702C218.662 113.841 218.543 114.234 218.699 114.506L218.713 114.472C218.99 114.348 219.107 113.958 218.943 113.702ZM213.413 72.1323C212.745 72.0018 211.763 72.1434 211.792 72.8237L220.092 76.2534C220.579 76.4545 221.097 76.6821 221.372 77.1313C221.642 77.5718 221.616 78.1248 221.581 78.6401L219.343 111.524C221.507 100.413 222.485 89.0702 222.254 77.7524C222.237 76.8976 222.191 75.9786 221.668 75.3022C221.285 74.8067 220.7 74.5163 220.128 74.2602C217.981 73.2984 215.722 72.5834 213.413 72.1323ZM211.619 55.0542C210.935 54.6005 209.946 55.0683 209.565 55.7954C209.183 56.5224 209.242 57.3931 209.328 58.2094C209.806 62.7304 210.857 67.2603 210.321 71.7749C210.949 71.9903 211.65 71.5481 211.954 70.9584C212.259 70.3688 212.267 69.6758 212.268 69.0122C212.275 65.0232 212.282 61.0343 212.289 57.0454C212.29 56.314 212.229 55.4583 211.619 55.0542Z" fill="#00160A"/>
<path fill-rule="evenodd" clip-rule="evenodd" d="M276.27 251.875C275.686 252.132 275.053 252.371 274.424 252.262C273.794 252.154 273.206 251.564 273.332 250.938C274.488 245.217 273.037 239.021 269.462 234.408C268.209 232.791 266.717 231.368 265.496 229.727C264.727 228.693 264.042 227.392 264.432 226.164C264.988 224.415 267.224 223.99 269.054 223.866C273.307 223.576 277.561 223.286 281.815 222.996C283.775 222.862 286.033 222.842 287.341 224.308C290.984 228.388 298.083 228.662 302.029 224.875C302.639 224.289 303.408 225.455 303.384 226.301C303.308 228.961 302.212 231.579 300.37 233.5C299.935 233.953 299.38 234.397 298.755 234.332C298.131 234.267 297.67 233.37 298.168 232.988C299.236 232.167 300.324 231.326 301.073 230.207C301.822 229.087 302.185 227.62 301.674 226.373C298.927 229.85 296.152 233.305 293.352 236.74C288.497 242.694 283.305 248.785 276.27 251.875ZM283.943 234.353C283.244 234.546 282.499 234.397 281.801 234.2C276.78 232.781 272.155 228.859 267.019 229.777C273.007 234.6 276.187 242.687 275.087 250.297C279.033 249.452 282.149 246.506 284.943 243.595C289.08 239.287 293.007 234.778 296.708 230.09C294.048 230.068 291.398 229.301 289.138 227.898C286.346 228.589 286.715 233.586 283.943 234.353ZM287.589 226.431C285.926 224.47 282.937 224.531 280.376 224.756C277.035 225.049 273.694 225.343 270.353 225.636C268.997 225.755 267.439 225.993 266.732 227.157C272.514 228.368 278.151 230.269 283.486 232.808C284.172 230.653 285.547 228.723 287.36 227.371C287.564 227.219 287.797 227.024 287.77 226.771C287.756 226.641 287.674 226.53 287.589 226.431V226.431Z" fill="#FFB61D"/>
<path fill-rule="evenodd" clip-rule="evenodd" d="M39.9057 179.673C34.8738 177.661 28.8773 178.257 24.3406 181.222C23.9014 181.509 23.27 181.189 23.0526 180.712C22.8352 180.234 22.9165 179.679 23.0277 179.166C24.4766 172.486 30.2486 167.375 36.6676 165.026C43.0866 162.677 50.1078 162.671 56.9312 163.072C57.6083 163.112 58.3159 163.165 58.8935 163.521C59.471 163.876 59.8596 164.636 59.5717 165.251C56.8876 170.977 54.8656 177.013 53.559 183.201C53.3471 184.204 52.3094 184.87 51.2873 184.953C50.2653 185.037 49.2638 184.659 48.3363 184.222C45.4456 182.859 42.8731 180.86 39.9057 179.673ZM40.4809 172.914C40.0325 173.278 39.3315 173.086 38.9096 172.691C38.4876 172.296 38.2471 171.75 37.9154 171.277C36.1363 168.739 32.0534 168.95 29.6333 170.886C27.2132 172.823 26.0421 175.882 24.9757 178.793C32.0757 175.709 40.8206 176.815 46.9285 181.571C47.7624 182.22 48.5899 182.952 49.6168 183.202C50.6437 183.452 51.9373 183.002 52.1974 181.978C53.587 176.506 55.2993 171.115 57.3226 165.844C53.4405 170.669 45.2877 169.009 40.4809 172.914ZM38.936 169.998C39.3347 170.499 40.0586 170.632 40.6888 170.519C41.3189 170.406 41.8914 170.092 42.4786 169.837C44.5002 168.958 46.7392 168.762 48.9065 168.36C51.0738 167.958 53.3092 167.278 54.8349 165.687C51.3926 165.677 47.9502 165.667 44.5078 165.656C41.0483 165.646 37.3203 165.719 34.5412 167.779C36.233 167.841 37.8817 168.673 38.936 169.998Z" fill="#FFB61D"/>
<path fill-rule="evenodd" clip-rule="evenodd" d="M201.57 179.212C201.562 176.184 201.554 173.156 201.546 170.128C201.543 169.258 201.541 168.389 201.539 167.519C201.537 166.92 201.638 166.169 202.207 165.983C202.638 165.842 203.113 166.151 203.314 166.558C203.516 166.964 203.514 167.437 203.507 167.891C203.444 172.116 203.381 176.342 203.318 180.567C203.309 181.175 203.207 181.923 202.638 182.136C201.689 181.599 201.573 180.302 201.57 179.212H201.57Z" fill="#00160A"/>
<path fill-rule="evenodd" clip-rule="evenodd" d="M195.525 176.409C195.087 176.601 194.861 175.879 194.928 175.405C195.171 173.71 195.414 172.011 195.826 170.348C196.083 169.313 196.453 168.224 197.308 167.587C198.163 166.95 199.63 167.061 200.049 168.042C200.251 168.517 200.167 169.06 200.074 169.568C199.498 172.714 198.723 175.823 197.755 178.87C197.714 178.999 197.669 179.134 197.571 179.228C197.332 179.457 196.903 179.303 196.737 179.017C196.572 178.731 196.594 178.379 196.62 178.05C197.014 178.021 197.197 177.558 197.292 177.175C197.678 175.61 198.064 174.045 198.45 172.48C198.75 171.263 199.024 169.876 198.325 168.835C197.607 169.277 197.337 170.171 197.124 170.987C196.694 172.628 196.264 174.269 195.834 175.91C195.783 176.106 195.711 176.328 195.525 176.409L195.525 176.409Z" fill="#00160A"/>
</svg>
