<svg width="2562" height="750" viewBox="0 0 2562 750" fill="none" xmlns="http://www.w3.org/2000/svg">
<path d="M126 276V333.5H238.5V408H126V471.5H253.5V550H28V197.5H253.5V276H126ZM289.926 373C289.926 338.333 297.092 307.5 311.426 280.5C326.092 253.167 346.759 232 373.426 217C400.092 201.667 430.759 194 465.426 194C509.426 194 546.426 205.833 576.426 229.5C606.426 252.833 625.759 284.667 634.426 325H528.926C522.592 311.667 513.759 301.5 502.426 294.5C491.426 287.5 478.592 284 463.926 284C441.259 284 423.092 292.167 409.426 308.5C396.092 324.5 389.426 346 389.426 373C389.426 400.333 396.092 422.167 409.426 438.5C423.092 454.5 441.259 462.5 463.926 462.5C478.592 462.5 491.426 459 502.426 452C513.759 445 522.592 434.833 528.926 421.5H634.426C625.759 461.833 606.426 493.833 576.426 517.5C546.426 540.833 509.426 552.5 465.426 552.5C430.759 552.5 400.092 545 373.426 530C346.759 514.667 326.092 493.5 311.426 466.5C297.092 439.167 289.926 408 289.926 373ZM1184.14 553.5C1143.48 553.5 1110.64 545.167 1085.64 528.5C1060.98 511.5 1048.64 486.833 1048.64 454.5C1048.64 451.833 1048.98 447.167 1049.64 440.5H1153.14C1152.14 451.833 1154.48 460.667 1160.14 467C1165.81 473.333 1174.48 476.5 1186.14 476.5C1195.81 476.5 1203.48 474.333 1209.14 470C1215.14 465.667 1218.14 459.5 1218.14 451.5C1218.14 442.167 1213.81 434.5 1205.14 428.5C1196.81 422.5 1183.14 415.5 1164.14 407.5C1145.14 399.5 1129.48 392 1117.14 385C1104.81 377.667 1094.14 367.833 1085.14 355.5C1076.14 342.833 1071.64 327.167 1071.64 308.5C1071.64 284.167 1077.64 263.333 1089.64 246C1101.64 228.333 1118.31 215 1139.64 206C1161.31 196.667 1185.98 192 1213.64 192C1238.64 192 1260.81 196 1280.14 204C1299.48 211.667 1314.48 222.833 1325.14 237.5C1336.14 252.167 1341.64 269.5 1341.64 289.5C1341.64 294.833 1341.48 298.833 1341.14 301.5H1235.64C1235.98 299.833 1236.14 297.5 1236.14 294.5C1236.14 286.5 1233.64 280.333 1228.64 276C1223.64 271.333 1216.81 269 1208.14 269C1199.14 269 1191.81 271.333 1186.14 276C1180.81 280.333 1178.14 286.5 1178.14 294.5C1178.14 303.167 1182.31 310.667 1190.64 317C1199.31 323 1212.64 330.167 1230.64 338.5C1249.98 347.5 1265.81 356 1278.14 364C1290.81 371.667 1301.64 382 1310.64 395C1319.64 408 1324.14 424 1324.14 443C1324.14 464 1318.48 483 1307.14 500C1295.81 516.667 1279.64 529.833 1258.64 539.5C1237.64 548.833 1212.81 553.5 1184.14 553.5ZM1682.06 197.5L1668.06 275.5H1574.56L1526.06 550H1427.56L1476.06 275.5H1383.06L1397.06 197.5H1682.06ZM1802.82 275L1792.82 333.5H1905.32L1891.82 408H1779.32L1767.82 472H1895.32L1881.82 550H1655.82L1718.32 197.5H1943.82L1930.32 275H1802.82ZM2249.75 315C2246.08 336.333 2237.75 355.833 2224.75 373.5C2212.08 390.833 2194.91 404.833 2173.25 415.5C2151.58 425.833 2126.41 431 2097.75 431H2049.25L2028.25 550H1929.75L1992.25 197.5H2138.75C2175.75 197.5 2203.91 206 2223.25 223C2242.58 239.667 2252.25 262.167 2252.25 290.5C2252.25 297.5 2251.41 305.667 2249.75 315ZM2102.25 353.5C2129.91 353.5 2145.91 340.667 2150.25 315C2150.91 310.333 2151.25 307 2151.25 305C2151.25 296 2148.25 289 2142.25 284C2136.58 278.667 2127.75 276 2115.75 276H2076.75L2063.25 353.5H2102.25ZM2393.62 553.5C2352.95 553.5 2320.12 545.167 2295.12 528.5C2270.45 511.5 2258.12 486.833 2258.12 454.5C2258.12 451.833 2258.45 447.167 2259.12 440.5H2362.62C2361.62 451.833 2363.95 460.667 2369.62 467C2375.28 473.333 2383.95 476.5 2395.62 476.5C2405.28 476.5 2412.95 474.333 2418.62 470C2424.62 465.667 2427.62 459.5 2427.62 451.5C2427.62 442.167 2423.28 434.5 2414.62 428.5C2406.28 422.5 2392.62 415.5 2373.62 407.5C2354.62 399.5 2338.95 392 2326.62 385C2314.28 377.667 2303.62 367.833 2294.62 355.5C2285.62 342.833 2281.12 327.167 2281.12 308.5C2281.12 284.167 2287.12 263.333 2299.12 246C2311.12 228.333 2327.78 215 2349.12 206C2370.78 196.667 2395.45 192 2423.12 192C2448.12 192 2470.28 196 2489.62 204C2508.95 211.667 2523.95 222.833 2534.62 237.5C2545.62 252.167 2551.12 269.5 2551.12 289.5C2551.12 294.833 2550.95 298.833 2550.62 301.5H2445.12C2445.45 299.833 2445.62 297.5 2445.62 294.5C2445.62 286.5 2443.12 280.333 2438.12 276C2433.12 271.333 2426.28 269 2417.62 269C2408.62 269 2401.28 271.333 2395.62 276C2390.28 280.333 2387.62 286.5 2387.62 294.5C2387.62 303.167 2391.78 310.667 2400.12 317C2408.78 323 2422.12 330.167 2440.12 338.5C2459.45 347.5 2475.28 356 2487.62 364C2500.28 371.667 2511.12 382 2520.12 395C2529.12 408 2533.62 424 2533.62 443C2533.62 464 2527.95 483 2516.62 500C2505.28 516.667 2489.12 529.833 2468.12 539.5C2447.12 548.833 2422.28 553.5 2393.62 553.5Z" fill="white"/>
<path d="M1015.76 220.066C1015.46 214.906 1013.27 210.036 1009.62 206.381C1005.96 202.725 1001.09 200.54 995.934 200.238C926.324 196.142 864.818 204.351 813.121 224.619C763.656 244.008 725.529 274.066 702.818 311.543C671.846 362.713 671.775 424.834 702.027 484.142L671.389 514.781C669.427 516.743 667.87 519.073 666.808 521.636C665.746 524.2 665.2 526.948 665.2 529.723C665.2 532.497 665.746 535.245 666.808 537.809C667.87 540.372 669.427 542.702 671.389 544.664C675.351 548.627 680.726 550.853 686.33 550.853C689.105 550.853 691.853 550.306 694.416 549.244C696.98 548.183 699.309 546.626 701.271 544.664L731.91 514.025C761.336 529.037 791.465 536.613 820.592 536.613C850.185 536.705 879.227 528.614 904.51 513.234C941.986 490.523 972.045 452.379 991.434 402.932C1011.65 351.199 1019.86 289.676 1015.76 220.066ZM882.59 477.094C847.275 498.486 805.844 500.103 763.551 482.226L912.156 333.621C914.118 331.659 915.675 329.329 916.737 326.766C917.799 324.202 918.345 321.454 918.345 318.68C918.345 315.905 917.799 313.157 916.737 310.593C915.675 308.03 914.118 305.7 912.156 303.738C910.194 301.776 907.865 300.22 905.301 299.158C902.737 298.096 899.99 297.549 897.215 297.549C894.44 297.549 891.692 298.096 889.129 299.158C886.565 300.22 884.236 301.776 882.273 303.738L733.773 452.449C715.949 410.262 717.566 368.725 739.047 333.41C775.803 272.713 863.043 238.98 974.594 241.564C977.02 353.08 943.287 440.338 882.59 477.094Z" fill="white"/>
</svg>
