<svg width="127" height="117" viewBox="0 0 127 117" fill="none" xmlns="http://www.w3.org/2000/svg">
<path d="M113.139 33.4415L100.933 17.6202C100.508 17.0673 99.9777 16.6038 99.3731 16.2561C98.7686 15.9085 98.1013 15.6836 97.4097 15.5944C96.718 15.5052 96.0156 15.5534 95.3426 15.7363C94.6696 15.9191 94.0393 16.233 93.4879 16.66L46.024 53.279C44.9145 54.1401 44.1923 55.4065 44.0161 56.7999L42.2086 70.8137C42.0289 72.2075 42.4101 73.6155 43.2685 74.7282C44.127 75.8408 45.3922 76.5669 46.786 76.7467L60.7998 78.5542C61.4901 78.6438 62.1912 78.5965 62.8632 78.415C63.5351 78.2335 64.1648 77.9214 64.7161 77.4966L112.18 40.8776C112.732 40.4525 113.194 39.9229 113.541 39.3191C113.887 38.7152 114.112 38.0489 114.201 37.3583C114.29 36.6677 114.242 35.9663 114.06 35.2942C113.878 34.6222 113.565 33.9926 113.139 33.4415ZM95.7749 28.3035L101.497 35.7198L96.0581 39.9157L90.3364 32.4995L95.7749 28.3035ZM59.9658 67.7614L53.3968 66.9141L54.244 60.3452L81.9313 38.9841L87.653 46.4003L59.9658 67.7614ZM106.368 70.4383L102.56 99.9681C102.26 102.291 101.05 104.4 99.1954 105.83C97.341 107.261 94.9942 107.897 92.6712 107.597L22.6022 98.5596C20.2793 98.26 18.1705 97.0499 16.7398 95.1955C15.3091 93.3411 14.6736 90.9943 14.9732 88.6713L24.0106 18.6023C24.3102 16.2793 25.5203 14.1706 27.3748 12.7399C29.2292 11.3092 31.576 10.6737 33.8989 10.9733L63.4287 14.782C64.8224 14.9618 66.0877 15.6878 66.9461 16.8005C67.8045 17.9131 68.1858 19.3212 68.006 20.715C67.8263 22.1088 67.1002 23.374 65.9875 24.2324C64.8749 25.0909 63.4668 25.4721 62.073 25.2924L34.295 21.7096L25.7095 88.2752L92.2751 96.8607L95.8579 69.0827C96.0377 67.689 96.7637 66.4237 97.8764 65.5653C98.989 64.7069 100.397 64.3256 101.791 64.5054C103.185 64.6851 104.45 65.4112 105.308 66.5238C106.167 67.6365 106.548 69.0446 106.368 70.4383Z" fill="white" fill-opacity="0.1"/>
</svg>
