<svg width="450" height="450" viewBox="0 0 450 450" fill="none" xmlns="http://www.w3.org/2000/svg">
<path d="M399.762 70.0664C399.46 64.906 397.275 60.0359 393.619 56.3807C389.964 52.7255 385.094 50.5397 379.934 50.2383C310.324 46.1426 248.818 54.3516 197.121 74.6192C147.656 94.0079 109.529 124.066 86.8184 161.543C55.8457 212.713 55.7754 274.834 86.0274 334.143L55.3887 364.781C53.4265 366.743 51.8701 369.073 50.8082 371.636C49.7463 374.2 49.1997 376.948 49.1997 379.723C49.1997 382.498 49.7463 385.245 50.8082 387.809C51.8701 390.373 53.4265 392.702 55.3887 394.664C59.3514 398.627 64.726 400.853 70.3301 400.853C73.105 400.853 75.8527 400.306 78.4163 399.245C80.98 398.183 83.3094 396.626 85.2715 394.664L115.91 364.025C145.336 379.037 175.465 386.613 204.592 386.613C234.185 386.706 263.227 378.615 288.51 363.234C325.986 340.523 356.045 302.379 375.434 252.932C395.649 201.199 403.857 139.676 399.762 70.0664ZM266.59 327.094C231.275 348.486 189.844 350.104 147.551 332.227L296.156 183.621C298.118 181.659 299.675 179.33 300.737 176.766C301.799 174.202 302.345 171.455 302.345 168.68C302.345 165.905 301.799 163.157 300.737 160.593C299.675 158.03 298.118 155.7 296.156 153.738C294.194 151.776 291.865 150.22 289.301 149.158C286.737 148.096 283.99 147.549 281.215 147.549C278.44 147.549 275.692 148.096 273.129 149.158C270.565 150.22 268.236 151.776 266.273 153.738L117.773 302.449C99.9492 260.262 101.566 218.725 123.047 183.41C159.803 122.713 247.043 88.9805 358.594 91.5645C361.02 203.08 327.287 290.338 266.59 327.094Z" fill="white"/>
</svg>
